<svg width="76" height="10" viewBox="0 0 76 10" fill="none" xmlns="http://www.w3.org/2000/svg">
<path d="M5.82955 2.45455C5.77841 2.02273 5.57102 1.6875 5.20739 1.44886C4.84375 1.21023 4.39773 1.09091 3.86932 1.09091C3.48295 1.09091 3.14489 1.15341 2.85511 1.27841C2.56818 1.40341 2.34375 1.57528 2.18182 1.79403C2.02273 2.01278 1.94318 2.26136 1.94318 2.53977C1.94318 2.77273 1.99858 2.97301 2.10938 3.14062C2.22301 3.3054 2.3679 3.44318 2.54403 3.55398C2.72017 3.66193 2.90483 3.75142 3.09801 3.82244C3.29119 3.89062 3.46875 3.94602 3.63068 3.98864L4.51705 4.22727C4.74432 4.28693 4.99716 4.36932 5.27557 4.47443C5.55682 4.57955 5.82528 4.72301 6.08097 4.90483C6.33949 5.08381 6.55256 5.31392 6.72017 5.59517C6.88778 5.87642 6.97159 6.22159 6.97159 6.63068C6.97159 7.10227 6.84801 7.52841 6.60085 7.90909C6.35653 8.28977 5.99858 8.59233 5.52699 8.81676C5.05824 9.04119 4.48864 9.15341 3.81818 9.15341C3.19318 9.15341 2.65199 9.05256 2.1946 8.85085C1.74006 8.64915 1.3821 8.3679 1.12074 8.0071C0.862216 7.64631 0.715909 7.22727 0.681818 6.75H1.77273C1.80114 7.07955 1.91193 7.35227 2.10511 7.56818C2.30114 7.78125 2.5483 7.94034 2.84659 8.04545C3.14773 8.14773 3.47159 8.19886 3.81818 8.19886C4.22159 8.19886 4.58381 8.13352 4.90483 8.00284C5.22585 7.86932 5.48011 7.68466 5.66761 7.44886C5.85511 7.21023 5.94886 6.93182 5.94886 6.61364C5.94886 6.32386 5.8679 6.08807 5.70597 5.90625C5.54403 5.72443 5.33097 5.5767 5.06676 5.46307C4.80256 5.34943 4.51705 5.25 4.21023 5.16477L3.13636 4.85795C2.45455 4.66193 1.91477 4.3821 1.51705 4.01847C1.11932 3.65483 0.920455 3.17898 0.920455 2.59091C0.920455 2.10227 1.05256 1.67614 1.31676 1.3125C1.58381 0.946023 1.94176 0.661932 2.39062 0.460227C2.84233 0.255682 3.34659 0.153409 3.90341 0.153409C4.46591 0.153409 4.96591 0.254261 5.40341 0.455966C5.84091 0.654829 6.1875 0.927556 6.44318 1.27415C6.7017 1.62074 6.83807 2.0142 6.85227 2.45455H5.82955ZM9.76598 0.272727V9H8.70916V0.272727H9.76598ZM11.8849 9V0.272727H14.8338C15.5156 0.272727 16.0753 0.389204 16.5128 0.622159C16.9503 0.852272 17.2741 1.16903 17.4844 1.57244C17.6946 1.97585 17.7997 2.43466 17.7997 2.94886C17.7997 3.46307 17.6946 3.91903 17.4844 4.31676C17.2741 4.71449 16.9517 5.02699 16.517 5.25426C16.0824 5.47869 15.527 5.59091 14.8509 5.59091H12.4645V4.63636H14.8168C15.2827 4.63636 15.6577 4.56818 15.9418 4.43182C16.2287 4.29545 16.4361 4.10227 16.5639 3.85227C16.6946 3.59943 16.7599 3.2983 16.7599 2.94886C16.7599 2.59943 16.6946 2.29403 16.5639 2.03267C16.4332 1.77131 16.2244 1.5696 15.9375 1.42756C15.6506 1.28267 15.2713 1.21023 14.7997 1.21023H12.9418V9H11.8849ZM15.9929 5.07955L18.1406 9H16.9134L14.7997 5.07955H15.9929ZM19.5607 9V0.272727H24.8278V1.21023H20.6175V4.15909H24.555V5.09659H20.6175V8.0625H24.896V9H19.5607ZM36.0735 3C35.9798 2.71307 35.8562 2.45597 35.7028 2.22869C35.5522 1.99858 35.3718 1.80256 35.1616 1.64062C34.9542 1.47869 34.7184 1.35511 34.4542 1.26989C34.19 1.18466 33.9002 1.14205 33.5849 1.14205C33.0678 1.14205 32.5977 1.27557 32.1744 1.54261C31.7511 1.80966 31.4144 2.20312 31.1644 2.72301C30.9144 3.2429 30.7894 3.88068 30.7894 4.63636C30.7894 5.39205 30.9158 6.02983 31.1687 6.54972C31.4215 7.0696 31.7638 7.46307 32.1957 7.73011C32.6275 7.99716 33.1133 8.13068 33.6531 8.13068C34.1531 8.13068 34.5934 8.02415 34.9741 7.81108C35.3576 7.59517 35.6559 7.29119 35.869 6.89915C36.0849 6.50426 36.1928 6.03977 36.1928 5.50568L36.5167 5.57386H33.8917V4.63636H37.2156V5.57386C37.2156 6.29261 37.0621 6.91761 36.7553 7.44886C36.4513 7.98011 36.0309 8.39205 35.494 8.68466C34.9599 8.97443 34.3462 9.11932 33.6531 9.11932C32.8803 9.11932 32.2013 8.9375 31.6161 8.57386C31.0337 8.21023 30.5792 7.69318 30.2525 7.02273C29.9286 6.35227 29.7667 5.55682 29.7667 4.63636C29.7667 3.94602 29.859 3.32528 30.0437 2.77415C30.2312 2.22017 30.4954 1.74858 30.8363 1.35938C31.1772 0.97017 31.5806 0.671875 32.0465 0.464489C32.5124 0.257102 33.0252 0.153409 33.5849 0.153409C34.0451 0.153409 34.4741 0.223011 34.8718 0.362216C35.2724 0.498579 35.6289 0.693181 35.9414 0.946022C36.2567 1.19602 36.5195 1.49574 36.7298 1.84517C36.94 2.19176 37.0849 2.5767 37.1644 3H36.0735ZM39.0256 9V0.272727H40.0824V8.0625H44.1392V9H39.0256ZM52.7994 4.63636C52.7994 5.55682 52.6332 6.35227 52.3008 7.02273C51.9684 7.69318 51.5124 8.21023 50.9329 8.57386C50.3533 8.9375 49.6914 9.11932 48.9471 9.11932C48.2028 9.11932 47.5408 8.9375 46.9613 8.57386C46.3817 8.21023 45.9258 7.69318 45.5934 7.02273C45.261 6.35227 45.0948 5.55682 45.0948 4.63636C45.0948 3.71591 45.261 2.92045 45.5934 2.25C45.9258 1.57955 46.3817 1.0625 46.9613 0.698864C47.5408 0.335227 48.2028 0.153409 48.9471 0.153409C49.6914 0.153409 50.3533 0.335227 50.9329 0.698864C51.5124 1.0625 51.9684 1.57955 52.3008 2.25C52.6332 2.92045 52.7994 3.71591 52.7994 4.63636ZM51.7766 4.63636C51.7766 3.88068 51.6502 3.2429 51.3974 2.72301C51.1474 2.20312 50.8079 1.80966 50.3789 1.54261C49.9528 1.27557 49.4755 1.14205 48.9471 1.14205C48.4187 1.14205 47.94 1.27557 47.511 1.54261C47.0849 1.80966 46.7454 2.20312 46.4925 2.72301C46.2425 3.2429 46.1175 3.88068 46.1175 4.63636C46.1175 5.39205 46.2425 6.02983 46.4925 6.54972C46.7454 7.0696 47.0849 7.46307 47.511 7.73011C47.94 7.99716 48.4187 8.13068 48.9471 8.13068C49.4755 8.13068 49.9528 7.99716 50.3789 7.73011C50.8079 7.46307 51.1474 7.0696 51.3974 6.54972C51.6502 6.02983 51.7766 5.39205 51.7766 4.63636ZM54.5763 9V0.272727H57.6275C58.2354 0.272727 58.7369 0.377841 59.1317 0.588068C59.5266 0.795454 59.8207 1.07528 60.0138 1.42756C60.207 1.77699 60.3036 2.16477 60.3036 2.59091C60.3036 2.96591 60.2369 3.27557 60.1033 3.51989C59.9727 3.7642 59.7994 3.95739 59.5835 4.09943C59.3704 4.24148 59.1388 4.34659 58.8888 4.41477V4.5C59.1559 4.51705 59.4244 4.6108 59.6942 4.78125C59.9641 4.9517 60.19 5.19602 60.3718 5.5142C60.5536 5.83239 60.6445 6.22159 60.6445 6.68182C60.6445 7.11932 60.5451 7.51278 60.3462 7.86222C60.1474 8.21165 59.8335 8.48864 59.4045 8.69318C58.9755 8.89773 58.4173 9 57.7298 9H54.5763ZM55.6332 8.0625H57.7298C58.4201 8.0625 58.9102 7.92898 59.1999 7.66193C59.4925 7.39205 59.6388 7.06534 59.6388 6.68182C59.6388 6.38636 59.5636 6.11364 59.413 5.86364C59.2624 5.6108 59.0479 5.40909 58.7695 5.25852C58.4911 5.10511 58.1616 5.02841 57.7809 5.02841H55.6332V8.0625ZM55.6332 4.10795H57.5934C57.9116 4.10795 58.1985 4.04545 58.4542 3.92045C58.7127 3.79545 58.9173 3.61932 59.0678 3.39205C59.2212 3.16477 59.2979 2.89773 59.2979 2.59091C59.2979 2.20739 59.1644 1.8821 58.8974 1.61506C58.6303 1.34517 58.207 1.21023 57.6275 1.21023H55.6332V4.10795ZM62.739 9H61.631L64.8356 0.272727H65.9265L69.131 9H68.0231L65.4151 1.65341H65.3469L62.739 9ZM63.1481 5.59091H67.614V6.52841H63.1481V5.59091ZM70.4904 9V0.272727H71.5472V8.0625H75.604V9H70.4904Z" fill="#131B66"/>
</svg>
