<svg width="720" height="720" viewBox="0 0 720 720" fill="none" xmlns="http://www.w3.org/2000/svg">
<ellipse cx="360" cy="457.213" rx="238.808" ry="230.672" fill="black"/>
<path fill-rule="evenodd" clip-rule="evenodd" d="M471.417 580.541C443.513 603.064 418.329 630.429 382.658 637.255C344.227 644.609 301.398 641.195 269.539 619.17C238.378 597.628 234.82 556.229 217.614 523.155C198.22 485.878 155.432 454.474 162.437 413.307C169.459 372.038 212.366 344.478 251.174 325.933C284.67 309.927 323.433 324.724 360.29 318.761C403.544 311.764 448.001 264.917 484.666 288.159C521.577 311.556 494.764 370.022 506.155 411.223C515.478 444.946 551.985 472.009 544.961 506.248C537.892 540.701 499.319 558.019 471.417 580.541Z" fill="url(#paint0_radial_520_91)"/>
<g filter="url(#filter0_dii_520_91)">
<path d="M202.908 466.707H220.363V584.727C220.363 603.323 236.019 618.447 255.272 618.447H464.727C483.98 618.447 499.637 603.323 499.637 584.727V466.707H517.091C520.543 466.706 523.917 465.717 526.786 463.864C529.656 462.012 531.893 459.379 533.214 456.299C534.534 453.218 534.88 449.829 534.207 446.559C533.534 443.289 531.872 440.285 529.432 437.927L372.34 286.187C370.72 284.62 368.797 283.377 366.679 282.529C364.562 281.681 362.292 281.244 360 281.244C357.707 281.244 355.437 281.681 353.32 282.529C351.202 283.377 349.279 284.62 347.659 286.187L190.568 437.927C188.127 440.285 186.465 443.289 185.792 446.559C185.119 449.829 185.465 453.218 186.785 456.299C188.106 459.379 190.343 462.012 193.213 463.864C196.082 465.717 199.456 466.706 202.908 466.707ZM360 321.947L464.727 423.107V500.427L464.745 584.727H255.272V423.107L360 321.947Z" fill="url(#paint1_linear_520_91)"/>
</g>
<ellipse cx="371.609" cy="512.889" rx="14.916" ry="17.1096" fill="#EB9E37" fill-opacity="0.64"/>
<ellipse cx="295.162" cy="503.875" rx="14.916" ry="17.1096" fill="#EB9E37" fill-opacity="0.64"/>
<ellipse cx="356.352" cy="434.838" rx="14.916" ry="17.1096" fill="#EB9E37" fill-opacity="0.64"/>
<path d="M226.848 49.3242V15.2442H240.96C242.432 15.2442 243.776 15.5482 244.992 16.1562C246.24 16.7642 247.312 17.5962 248.208 18.6522C249.136 19.6762 249.84 20.8282 250.32 22.1082C250.832 23.3562 251.088 24.6362 251.088 25.9482C251.088 27.8042 250.672 29.5642 249.84 31.2282C249.008 32.8602 247.856 34.1882 246.384 35.2122C244.912 36.2362 243.2 36.7482 241.248 36.7482H230.208V49.3242H226.848ZM230.208 33.7722H241.104C242.448 33.7722 243.616 33.4042 244.608 32.6682C245.6 31.9322 246.368 30.9722 246.912 29.7882C247.456 28.6042 247.728 27.3242 247.728 25.9482C247.728 24.5402 247.408 23.2602 246.768 22.1082C246.128 20.9242 245.28 19.9802 244.224 19.2762C243.2 18.5722 242.064 18.2202 240.816 18.2202H230.208V33.7722ZM260.547 49.3242V15.2442H274.947C276.419 15.2442 277.763 15.5482 278.979 16.1562C280.227 16.7642 281.299 17.5962 282.195 18.6522C283.091 19.6762 283.779 20.8282 284.259 22.1082C284.771 23.3562 285.027 24.6362 285.027 25.9482C285.027 27.6122 284.707 29.1642 284.067 30.6042C283.459 32.0442 282.579 33.2602 281.427 34.2522C280.275 35.2442 278.947 35.8842 277.443 36.1722L285.795 49.3242H282.003L273.987 36.7482H263.907V49.3242H260.547ZM263.907 33.7722H275.043C276.387 33.7722 277.555 33.4042 278.547 32.6682C279.539 31.9002 280.307 30.9242 280.851 29.7402C281.395 28.5562 281.667 27.2922 281.667 25.9482C281.667 24.5722 281.347 23.3082 280.707 22.1562C280.099 20.9722 279.267 20.0282 278.211 19.3242C277.155 18.5882 276.003 18.2202 274.755 18.2202H263.907V33.7722ZM309.474 49.5642C307.074 49.5642 304.898 49.0842 302.946 48.1242C300.994 47.1322 299.314 45.8202 297.906 44.1882C296.498 42.5562 295.41 40.7162 294.642 38.6682C293.874 36.5882 293.49 34.4602 293.49 32.2842C293.49 30.0122 293.89 27.8522 294.69 25.8042C295.49 23.7242 296.61 21.8842 298.05 20.2842C299.522 18.6522 301.234 17.3722 303.186 16.4442C305.138 15.4842 307.25 15.0042 309.522 15.0042C311.89 15.0042 314.05 15.5002 316.002 16.4922C317.954 17.4842 319.634 18.8122 321.042 20.4762C322.482 22.1402 323.57 23.9962 324.306 26.0442C325.074 28.0922 325.458 30.1882 325.458 32.3322C325.458 34.6042 325.058 36.7802 324.258 38.8602C323.458 40.9082 322.338 42.7482 320.898 44.3802C319.458 45.9802 317.762 47.2442 315.81 48.1722C313.858 49.1002 311.746 49.5642 309.474 49.5642ZM296.85 32.2842C296.85 34.1402 297.154 35.9162 297.762 37.6122C298.37 39.3082 299.234 40.8282 300.354 42.1722C301.474 43.5162 302.802 44.5882 304.338 45.3882C305.906 46.1562 307.618 46.5402 309.474 46.5402C311.426 46.5402 313.17 46.1402 314.706 45.3402C316.274 44.5082 317.602 43.4042 318.69 42.0282C319.81 40.6522 320.658 39.1322 321.234 37.4682C321.81 35.7722 322.098 34.0442 322.098 32.2842C322.098 30.4282 321.794 28.6522 321.186 26.9562C320.578 25.2602 319.698 23.7402 318.546 22.3962C317.426 21.0522 316.098 19.9962 314.562 19.2282C313.026 18.4602 311.33 18.0762 309.474 18.0762C307.554 18.0762 305.81 18.4762 304.242 19.2762C302.706 20.0762 301.378 21.1642 300.258 22.5402C299.17 23.8842 298.322 25.4042 297.714 27.1002C297.138 28.7962 296.85 30.5242 296.85 32.2842ZM335.633 49.3242V15.2442H349.745C351.217 15.2442 352.561 15.5482 353.777 16.1562C355.025 16.7642 356.097 17.5962 356.993 18.6522C357.921 19.6762 358.625 20.8282 359.105 22.1082C359.617 23.3562 359.873 24.6362 359.873 25.9482C359.873 27.8042 359.457 29.5642 358.625 31.2282C357.793 32.8602 356.641 34.1882 355.169 35.2122C353.697 36.2362 351.985 36.7482 350.033 36.7482H338.993V49.3242H335.633ZM338.993 33.7722H349.889C351.233 33.7722 352.401 33.4042 353.393 32.6682C354.385 31.9322 355.153 30.9722 355.697 29.7882C356.241 28.6042 356.513 27.3242 356.513 25.9482C356.513 24.5402 356.193 23.2602 355.553 22.1082C354.913 20.9242 354.065 19.9802 353.009 19.2762C351.985 18.5722 350.849 18.2202 349.601 18.2202H338.993V33.7722ZM392.229 46.3482V49.3242H369.333V15.2442H391.797V18.2202H372.693V30.5082H389.349V33.3402H372.693V46.3482H392.229ZM402.423 49.3242V15.2442H416.823C418.295 15.2442 419.639 15.5482 420.855 16.1562C422.103 16.7642 423.175 17.5962 424.071 18.6522C424.967 19.6762 425.655 20.8282 426.135 22.1082C426.647 23.3562 426.903 24.6362 426.903 25.9482C426.903 27.6122 426.583 29.1642 425.943 30.6042C425.335 32.0442 424.455 33.2602 423.303 34.2522C422.151 35.2442 420.823 35.8842 419.319 36.1722L427.671 49.3242H423.879L415.863 36.7482H405.783V49.3242H402.423ZM405.783 33.7722H416.919C418.263 33.7722 419.431 33.4042 420.423 32.6682C421.415 31.9002 422.183 30.9242 422.727 29.7402C423.271 28.5562 423.543 27.2922 423.543 25.9482C423.543 24.5722 423.223 23.3082 422.583 22.1562C421.975 20.9722 421.143 20.0282 420.087 19.3242C419.031 18.5882 417.879 18.2202 416.631 18.2202H405.783V33.7722ZM461.486 18.2202H449.342V49.3242H445.982V18.2202H433.838V15.2442H461.486V18.2202ZM470.623 15.2442L481.759 33.5802L492.991 15.2442H496.639L483.439 36.6522V49.3242H480.079V36.5562L466.927 15.2442H470.623Z" fill="#ECBA3E"/>
<path d="M290.098 79.2442C289.298 78.3642 288.231 77.6442 286.898 77.0842C285.564 76.4976 284.044 76.2042 282.338 76.2042C279.831 76.2042 278.004 76.6842 276.858 77.6442C275.711 78.5776 275.138 79.8576 275.138 81.4842C275.138 82.6042 275.418 83.4842 275.978 84.1242C276.538 84.7642 277.391 85.2976 278.538 85.7242C279.711 86.1242 281.204 86.5242 283.018 86.9242C285.044 87.3509 286.791 87.8576 288.258 88.4442C289.724 89.0309 290.858 89.8309 291.658 90.8442C292.458 91.8309 292.858 93.1776 292.858 94.8842C292.858 96.6176 292.418 98.0576 291.538 99.2042C290.658 100.351 289.444 101.204 287.898 101.764C286.351 102.298 284.591 102.564 282.618 102.564C278.191 102.564 274.391 101.191 271.218 98.4442L272.618 96.1642C273.631 97.2309 275.018 98.1509 276.778 98.9242C278.564 99.6976 280.538 100.084 282.698 100.084C284.938 100.084 286.698 99.6709 287.978 98.8442C289.258 98.0176 289.898 96.7909 289.898 95.1642C289.898 93.9909 289.578 93.0576 288.938 92.3642C288.298 91.6442 287.338 91.0576 286.058 90.6042C284.778 90.1509 283.204 89.7109 281.338 89.2842C279.364 88.8309 277.698 88.3242 276.338 87.7642C275.004 87.2042 273.991 86.4709 273.298 85.5642C272.604 84.6576 272.258 83.4309 272.258 81.8842C272.258 80.1242 272.684 78.6442 273.538 77.4442C274.418 76.2176 275.618 75.2976 277.138 74.6842C278.658 74.0442 280.404 73.7242 282.378 73.7242C284.244 73.7242 285.924 74.0176 287.418 74.6042C288.911 75.1642 290.258 75.9642 291.458 77.0042L290.098 79.2442ZM300.994 102.324V73.9242H312.754C313.981 73.9242 315.101 74.1776 316.114 74.6842C317.154 75.1909 318.048 75.8842 318.794 76.7642C319.568 77.6175 320.154 78.5776 320.554 79.6442C320.981 80.6842 321.194 81.7509 321.194 82.8442C321.194 84.3909 320.848 85.8576 320.154 87.2442C319.461 88.6042 318.501 89.7109 317.274 90.5642C316.048 91.4176 314.621 91.8442 312.994 91.8442H303.794V102.324H300.994ZM303.794 89.3642H312.874C313.994 89.3642 314.968 89.0576 315.794 88.4442C316.621 87.8309 317.261 87.0309 317.714 86.0442C318.168 85.0576 318.394 83.9909 318.394 82.8442C318.394 81.6709 318.128 80.6042 317.594 79.6442C317.061 78.6576 316.354 77.8709 315.474 77.2842C314.621 76.6976 313.674 76.4042 312.634 76.4042H303.794V89.3642ZM340.517 102.524C338.517 102.524 336.704 102.124 335.077 101.324C333.451 100.498 332.051 99.4042 330.877 98.0442C329.704 96.6842 328.797 95.1509 328.157 93.4442C327.517 91.7109 327.197 89.9376 327.197 88.1242C327.197 86.2309 327.531 84.4309 328.197 82.7242C328.864 80.9909 329.797 79.4576 330.997 78.1242C332.224 76.7642 333.651 75.6976 335.277 74.9242C336.904 74.1242 338.664 73.7242 340.557 73.7242C342.531 73.7242 344.331 74.1376 345.957 74.9642C347.584 75.7909 348.984 76.8976 350.157 78.2842C351.357 79.6709 352.264 81.2176 352.877 82.9242C353.517 84.6309 353.837 86.3776 353.837 88.1642C353.837 90.0576 353.504 91.8709 352.837 93.6042C352.171 95.3109 351.237 96.8442 350.037 98.2042C348.837 99.5376 347.424 100.591 345.797 101.364C344.171 102.138 342.411 102.524 340.517 102.524ZM329.997 88.1242C329.997 89.6709 330.251 91.1509 330.757 92.5642C331.264 93.9776 331.984 95.2442 332.917 96.3642C333.851 97.4842 334.957 98.3776 336.237 99.0442C337.544 99.6842 338.971 100.004 340.517 100.004C342.144 100.004 343.597 99.6709 344.877 99.0042C346.184 98.3109 347.291 97.3909 348.197 96.2442C349.131 95.0976 349.837 93.8309 350.317 92.4442C350.797 91.0309 351.037 89.5909 351.037 88.1242C351.037 86.5776 350.784 85.0976 350.277 83.6842C349.771 82.2709 349.037 81.0042 348.077 79.8842C347.144 78.7642 346.037 77.8842 344.757 77.2442C343.477 76.6042 342.064 76.2842 340.517 76.2842C338.917 76.2842 337.464 76.6176 336.157 77.2842C334.877 77.9509 333.771 78.8576 332.837 80.0042C331.931 81.1242 331.224 82.3909 330.717 83.8042C330.237 85.2176 329.997 86.6576 329.997 88.1242ZM365.116 79.0842V102.324H362.316V73.9242H364.636L383.276 97.6042V73.9642H386.076V102.324H383.476L365.116 79.0842ZM407.815 102.524C405.895 102.524 404.121 102.124 402.495 101.324C400.895 100.498 399.495 99.3909 398.295 98.0042C397.095 96.6176 396.161 95.0709 395.495 93.3642C394.855 91.6309 394.535 89.8709 394.535 88.0842C394.535 86.1909 394.855 84.3909 395.495 82.6842C396.161 80.9509 397.081 79.4176 398.255 78.0842C399.428 76.7242 400.815 75.6576 402.415 74.8842C404.015 74.1109 405.761 73.7242 407.655 73.7242C410.455 73.7242 412.735 74.2976 414.495 75.4442C416.255 76.5909 417.588 78.0842 418.495 79.9242L416.335 81.3642C415.428 79.6042 414.215 78.3109 412.695 77.4842C411.175 76.6576 409.481 76.2442 407.615 76.2442C406.041 76.2442 404.615 76.5776 403.335 77.2442C402.081 77.9109 401.001 78.8042 400.095 79.9242C399.215 81.0442 398.535 82.3109 398.055 83.7242C397.575 85.1376 397.335 86.6042 397.335 88.1242C397.335 89.7242 397.601 91.2442 398.135 92.6842C398.668 94.0976 399.415 95.3642 400.375 96.4842C401.361 97.5776 402.495 98.4442 403.775 99.0842C405.081 99.6976 406.495 100.004 408.015 100.004C409.641 100.004 411.188 99.6176 412.655 98.8442C414.148 98.0709 415.575 96.8709 416.935 95.2442V90.5242H410.615V88.3642H419.295V102.324H416.935V98.1642C414.321 101.071 411.281 102.524 407.815 102.524ZM447.328 99.8442V102.324H428.248V73.9242H446.968V76.4042H431.048V86.6442H444.928V89.0042H431.048V99.8442H447.328Z" fill="black"/>
<line x1="480.07" y1="86.8359" x2="496.07" y2="86.8359" stroke="black" stroke-width="4"/>
<line x1="224.07" y1="86.8359" x2="240.07" y2="86.8359" stroke="black" stroke-width="4"/>
<path d="M143.552 170.959V142.559H146.352V170.959H143.552ZM173.634 170.959H170.914V159.319C170.914 156.866 170.541 155.079 169.794 153.959C169.074 152.812 167.954 152.239 166.434 152.239C165.368 152.239 164.314 152.506 163.274 153.039C162.234 153.546 161.314 154.252 160.514 155.159C159.741 156.039 159.181 157.052 158.834 158.199V170.959H156.114V150.119H158.594V154.839C159.421 153.319 160.634 152.092 162.234 151.159C163.834 150.226 165.568 149.759 167.434 149.759C168.981 149.759 170.208 150.132 171.114 150.879C172.021 151.599 172.661 152.639 173.034 153.999C173.434 155.332 173.634 156.919 173.634 158.759V170.959ZM192.439 169.959C192.119 170.092 191.533 170.332 190.679 170.679C189.826 171.026 188.839 171.199 187.719 171.199C186.546 171.199 185.519 170.866 184.639 170.199C183.759 169.532 183.319 168.532 183.319 167.199V152.279H180.439V150.119H183.319V143.079H186.039V150.119H190.839V152.279H186.039V166.439C186.093 167.212 186.359 167.786 186.839 168.159C187.346 168.506 187.919 168.679 188.559 168.679C189.306 168.679 189.973 168.559 190.559 168.319C191.173 168.052 191.559 167.866 191.719 167.759L192.439 169.959ZM207.686 171.359C205.686 171.359 203.899 170.866 202.326 169.879C200.753 168.892 199.513 167.572 198.606 165.919C197.699 164.266 197.246 162.452 197.246 160.479C197.246 158.532 197.686 156.746 198.566 155.119C199.473 153.492 200.713 152.199 202.286 151.239C203.859 150.252 205.646 149.759 207.646 149.759C209.699 149.759 211.499 150.252 213.046 151.239C214.593 152.226 215.793 153.532 216.646 155.159C217.526 156.759 217.966 158.519 217.966 160.439C217.966 160.866 217.953 161.226 217.926 161.519H200.086C200.219 163.012 200.646 164.346 201.366 165.519C202.086 166.666 203.006 167.586 204.126 168.279C205.246 168.946 206.473 169.279 207.806 169.279C209.166 169.279 210.446 168.932 211.646 168.239C212.846 167.546 213.699 166.639 214.206 165.519L216.566 166.159C216.139 167.172 215.473 168.079 214.566 168.879C213.686 169.652 212.659 170.266 211.486 170.719C210.313 171.146 209.046 171.359 207.686 171.359ZM200.006 159.559H215.406C215.299 158.066 214.886 156.746 214.166 155.599C213.446 154.426 212.526 153.519 211.406 152.879C210.286 152.212 209.046 151.879 207.686 151.879C206.326 151.879 205.086 152.212 203.966 152.879C202.846 153.519 201.926 154.426 201.206 155.599C200.513 156.746 200.113 158.066 200.006 159.559ZM235.763 152.519C233.949 152.572 232.349 153.079 230.963 154.039C229.603 154.999 228.643 156.319 228.083 157.999V170.959H225.363V150.119H227.923V155.119C228.643 153.652 229.589 152.466 230.763 151.559C231.963 150.652 233.229 150.146 234.563 150.039C234.829 150.012 235.056 149.999 235.243 149.999C235.429 149.999 235.603 150.012 235.763 150.039V152.519ZM240.828 164.959C240.828 163.679 241.201 162.572 241.948 161.639C242.695 160.679 243.721 159.932 245.028 159.399C246.361 158.866 247.895 158.599 249.628 158.599C250.641 158.599 251.695 158.692 252.788 158.879C253.881 159.039 254.855 159.266 255.708 159.559V157.799C255.708 156.039 255.188 154.639 254.148 153.599C253.108 152.559 251.668 152.039 249.828 152.039C248.735 152.039 247.641 152.252 246.548 152.679C245.455 153.079 244.321 153.679 243.148 154.479L242.108 152.559C243.468 151.626 244.801 150.932 246.108 150.479C247.415 149.999 248.748 149.759 250.108 149.759C252.668 149.759 254.695 150.492 256.188 151.959C257.681 153.426 258.428 155.452 258.428 158.039V167.679C258.428 168.399 258.761 168.772 259.428 168.799V170.959C258.841 171.039 258.428 171.066 258.188 171.039C257.521 171.012 257.015 170.799 256.668 170.399C256.321 169.999 256.135 169.572 256.108 169.119L256.068 167.599C255.135 168.799 253.921 169.732 252.428 170.399C250.935 171.039 249.415 171.359 247.868 171.359C246.508 171.359 245.295 171.079 244.228 170.519C243.161 169.932 242.321 169.159 241.708 168.199C241.121 167.212 240.828 166.132 240.828 164.959ZM254.788 166.559C255.401 165.839 255.708 165.172 255.708 164.559V161.519C253.868 160.799 251.948 160.439 249.948 160.439C248.001 160.439 246.428 160.826 245.228 161.599C244.028 162.372 243.428 163.426 243.428 164.759C243.428 165.906 243.868 166.946 244.748 167.879C245.655 168.812 246.908 169.279 248.508 169.279C249.815 169.279 251.028 169.026 252.148 168.519C253.295 168.012 254.175 167.359 254.788 166.559ZM276.545 171.359C274.518 171.359 272.718 170.866 271.145 169.879C269.572 168.866 268.332 167.546 267.425 165.919C266.518 164.266 266.065 162.452 266.065 160.479C266.065 158.506 266.505 156.719 267.385 155.119C268.265 153.492 269.492 152.199 271.065 151.239C272.638 150.252 274.452 149.759 276.505 149.759C278.452 149.759 280.158 150.212 281.625 151.119C283.118 151.999 284.238 153.199 284.985 154.719L282.345 155.559C281.758 154.492 280.932 153.666 279.865 153.079C278.825 152.466 277.665 152.159 276.385 152.159C274.972 152.159 273.692 152.519 272.545 153.239C271.425 153.959 270.518 154.959 269.825 156.239C269.158 157.492 268.825 158.906 268.825 160.479C268.825 162.052 269.172 163.479 269.865 164.759C270.558 166.039 271.478 167.066 272.625 167.839C273.772 168.586 275.038 168.959 276.425 168.959C277.332 168.959 278.212 168.799 279.065 168.479C279.918 168.159 280.652 167.732 281.265 167.199C281.878 166.639 282.292 166.039 282.505 165.399L285.185 166.199C284.812 167.186 284.198 168.079 283.345 168.879C282.492 169.652 281.478 170.266 280.305 170.719C279.132 171.146 277.878 171.359 276.545 171.359ZM302.658 169.959C302.338 170.092 301.751 170.332 300.898 170.679C300.045 171.026 299.058 171.199 297.938 171.199C296.765 171.199 295.738 170.866 294.858 170.199C293.978 169.532 293.538 168.532 293.538 167.199V152.279H290.658V150.119H293.538V143.079H296.258V150.119H301.058V152.279H296.258V166.439C296.311 167.212 296.578 167.786 297.058 168.159C297.565 168.506 298.138 168.679 298.778 168.679C299.525 168.679 300.191 168.559 300.778 168.319C301.391 168.052 301.778 167.866 301.938 167.759L302.658 169.959ZM309.256 145.759V141.759H311.976V145.759H309.256ZM309.256 170.959V150.119H311.976V170.959H309.256ZM330.047 171.359C328.047 171.359 326.261 170.866 324.687 169.879C323.141 168.892 321.927 167.586 321.047 165.959C320.167 164.306 319.727 162.519 319.727 160.599C319.727 158.652 320.167 156.866 321.047 155.239C321.954 153.586 323.181 152.266 324.727 151.279C326.301 150.266 328.074 149.759 330.047 149.759C332.047 149.759 333.821 150.266 335.367 151.279C336.941 152.266 338.167 153.586 339.047 155.239C339.954 156.866 340.407 158.652 340.407 160.599C340.407 162.519 339.967 164.306 339.087 165.959C338.207 167.586 336.981 168.892 335.407 169.879C333.861 170.866 332.074 171.359 330.047 171.359ZM322.487 160.639C322.487 162.186 322.821 163.599 323.487 164.879C324.181 166.132 325.101 167.132 326.247 167.879C327.394 168.599 328.661 168.959 330.047 168.959C331.434 168.959 332.701 168.586 333.847 167.839C334.994 167.092 335.914 166.079 336.607 164.799C337.301 163.519 337.647 162.106 337.647 160.559C337.647 159.012 337.301 157.599 336.607 156.319C335.914 155.039 334.994 154.026 333.847 153.279C332.701 152.532 331.434 152.159 330.047 152.159C328.687 152.159 327.434 152.546 326.287 153.319C325.141 154.066 324.221 155.079 323.527 156.359C322.834 157.639 322.487 159.066 322.487 160.639ZM365.676 170.959H362.956V159.319C362.956 156.866 362.583 155.079 361.836 153.959C361.116 152.812 359.996 152.239 358.476 152.239C357.41 152.239 356.356 152.506 355.316 153.039C354.276 153.546 353.356 154.252 352.556 155.159C351.783 156.039 351.223 157.052 350.876 158.199V170.959H348.156V150.119H350.636V154.839C351.463 153.319 352.676 152.092 354.276 151.159C355.876 150.226 357.61 149.759 359.476 149.759C361.023 149.759 362.25 150.132 363.156 150.879C364.063 151.599 364.703 152.639 365.076 153.999C365.476 155.332 365.676 156.919 365.676 158.759V170.959ZM388.512 176.159V139.959H390.872V176.159H388.512ZM426.045 171.159C423.805 171.159 421.912 170.759 420.365 169.959C418.845 169.159 417.619 168.079 416.685 166.719C415.752 165.359 415.085 163.839 414.685 162.159C414.285 160.452 414.085 158.692 414.085 156.879V142.559H416.845V156.879C416.845 158.372 416.992 159.826 417.285 161.239C417.605 162.626 418.112 163.879 418.805 164.999C419.499 166.119 420.432 167.012 421.605 167.679C422.779 168.319 424.245 168.639 426.005 168.639C427.819 168.639 429.312 168.306 430.485 167.639C431.685 166.972 432.632 166.079 433.325 164.959C434.019 163.812 434.499 162.546 434.765 161.159C435.059 159.746 435.205 158.319 435.205 156.879V142.559H438.005V156.879C438.005 158.772 437.792 160.586 437.365 162.319C436.939 164.026 436.245 165.546 435.285 166.879C434.352 168.212 433.125 169.266 431.605 170.039C430.085 170.786 428.232 171.159 426.045 171.159ZM447.88 170.959V142.559H450.68V170.959H447.88ZM472.518 156.559C472.518 154.852 472.811 153.159 473.398 151.479C474.011 149.799 474.891 148.279 476.038 146.919C477.184 145.532 478.598 144.439 480.278 143.639C481.958 142.812 483.864 142.399 485.998 142.399C488.504 142.399 490.664 142.986 492.478 144.159C494.291 145.306 495.624 146.786 496.478 148.599L494.278 149.959C493.664 148.706 492.891 147.719 491.958 146.999C491.024 146.252 490.024 145.719 488.958 145.399C487.918 145.079 486.878 144.919 485.838 144.919C484.131 144.919 482.624 145.266 481.318 145.959C480.011 146.626 478.904 147.532 477.998 148.679C477.118 149.826 476.451 151.092 475.998 152.479C475.544 153.866 475.318 155.279 475.318 156.719C475.318 158.292 475.584 159.799 476.118 161.239C476.651 162.652 477.398 163.919 478.358 165.039C479.318 166.159 480.438 167.052 481.718 167.719C483.024 168.359 484.438 168.679 485.958 168.679C487.024 168.679 488.118 168.492 489.238 168.119C490.358 167.746 491.398 167.172 492.358 166.399C493.318 165.626 494.104 164.626 494.718 163.399L497.038 164.599C496.424 166.012 495.504 167.212 494.278 168.199C493.078 169.186 491.718 169.932 490.198 170.439C488.704 170.946 487.238 171.199 485.798 171.199C483.851 171.199 482.064 170.786 480.438 169.959C478.811 169.106 477.398 167.986 476.198 166.599C475.024 165.186 474.118 163.612 473.478 161.879C472.838 160.119 472.518 158.346 472.518 156.559ZM513.34 171.359C511.34 171.359 509.553 170.866 507.98 169.879C506.433 168.892 505.22 167.586 504.34 165.959C503.46 164.306 503.02 162.519 503.02 160.599C503.02 158.652 503.46 156.866 504.34 155.239C505.246 153.586 506.473 152.266 508.02 151.279C509.593 150.266 511.366 149.759 513.34 149.759C515.34 149.759 517.113 150.266 518.66 151.279C520.233 152.266 521.46 153.586 522.34 155.239C523.246 156.866 523.7 158.652 523.7 160.599C523.7 162.519 523.26 164.306 522.38 165.959C521.5 167.586 520.273 168.892 518.7 169.879C517.153 170.866 515.366 171.359 513.34 171.359ZM505.78 160.639C505.78 162.186 506.113 163.599 506.78 164.879C507.473 166.132 508.393 167.132 509.54 167.879C510.686 168.599 511.953 168.959 513.34 168.959C514.726 168.959 515.993 168.586 517.14 167.839C518.286 167.092 519.206 166.079 519.9 164.799C520.593 163.519 520.94 162.106 520.94 160.559C520.94 159.012 520.593 157.599 519.9 156.319C519.206 155.039 518.286 154.026 517.14 153.279C515.993 152.532 514.726 152.159 513.34 152.159C511.98 152.159 510.726 152.546 509.58 153.319C508.433 154.066 507.513 155.079 506.82 156.359C506.126 157.639 505.78 159.066 505.78 160.639ZM530.049 160.599C530.049 158.626 530.449 156.826 531.249 155.199C532.075 153.546 533.209 152.226 534.649 151.239C536.089 150.252 537.729 149.759 539.569 149.759C541.302 149.759 542.849 150.226 544.209 151.159C545.595 152.066 546.675 153.172 547.449 154.479V141.759H550.169V167.679C550.169 168.399 550.489 168.772 551.129 168.799V170.959C550.595 171.039 550.182 171.066 549.889 171.039C549.302 171.012 548.795 170.799 548.369 170.399C547.969 169.972 547.769 169.492 547.769 168.959V166.919C546.942 168.279 545.822 169.359 544.409 170.159C542.995 170.959 541.529 171.359 540.009 171.359C538.569 171.359 537.235 171.066 536.009 170.479C534.782 169.892 533.715 169.092 532.809 168.079C531.929 167.066 531.249 165.919 530.769 164.639C530.289 163.332 530.049 161.986 530.049 160.599ZM547.449 163.799V157.359C547.102 156.399 546.542 155.532 545.769 154.759C544.995 153.959 544.115 153.332 543.129 152.879C542.169 152.399 541.209 152.159 540.249 152.159C538.755 152.159 537.449 152.572 536.329 153.399C535.235 154.199 534.382 155.252 533.769 156.559C533.155 157.839 532.849 159.186 532.849 160.599C532.849 162.092 533.182 163.479 533.849 164.759C534.542 166.039 535.475 167.066 536.649 167.839C537.822 168.586 539.142 168.959 540.609 168.959C541.515 168.959 542.462 168.732 543.449 168.279C544.462 167.799 545.342 167.172 546.089 166.399C546.862 165.626 547.315 164.759 547.449 163.799ZM568.531 171.359C566.531 171.359 564.745 170.866 563.171 169.879C561.598 168.892 560.358 167.572 559.451 165.919C558.545 164.266 558.091 162.452 558.091 160.479C558.091 158.532 558.531 156.746 559.411 155.119C560.318 153.492 561.558 152.199 563.131 151.239C564.705 150.252 566.491 149.759 568.491 149.759C570.545 149.759 572.345 150.252 573.891 151.239C575.438 152.226 576.638 153.532 577.491 155.159C578.371 156.759 578.811 158.519 578.811 160.439C578.811 160.866 578.798 161.226 578.771 161.519H560.931C561.065 163.012 561.491 164.346 562.211 165.519C562.931 166.666 563.851 167.586 564.971 168.279C566.091 168.946 567.318 169.279 568.651 169.279C570.011 169.279 571.291 168.932 572.491 168.239C573.691 167.546 574.545 166.639 575.051 165.519L577.411 166.159C576.985 167.172 576.318 168.079 575.411 168.879C574.531 169.652 573.505 170.266 572.331 170.719C571.158 171.146 569.891 171.359 568.531 171.359ZM560.851 159.559H576.251C576.145 158.066 575.731 156.746 575.011 155.599C574.291 154.426 573.371 153.519 572.251 152.879C571.131 152.212 569.891 151.879 568.531 151.879C567.171 151.879 565.931 152.212 564.811 152.879C563.691 153.519 562.771 154.426 562.051 155.599C561.358 156.746 560.958 158.066 560.851 159.559Z" fill="black"/>
<defs>
<filter id="filter0_dii_520_91" x="147.99" y="271.877" width="424.02" height="421.504" filterUnits="userSpaceOnUse" color-interpolation-filters="sRGB">
<feFlood flood-opacity="0" result="BackgroundImageFix"/>
<feColorMatrix in="SourceAlpha" type="matrix" values="0 0 0 0 0 0 0 0 0 0 0 0 0 0 0 0 0 0 127 0" result="hardAlpha"/>
<feOffset dy="37.4669"/>
<feGaussianBlur stdDeviation="18.7335"/>
<feColorMatrix type="matrix" values="0 0 0 0 0.758333 0 0 0 0 0.0537153 0 0 0 0 0.0537153 0 0 0 0.24 0"/>
<feBlend mode="normal" in2="BackgroundImageFix" result="effect1_dropShadow_520_91"/>
<feBlend mode="normal" in="SourceGraphic" in2="effect1_dropShadow_520_91" result="shape"/>
<feColorMatrix in="SourceAlpha" type="matrix" values="0 0 0 0 0 0 0 0 0 0 0 0 0 0 0 0 0 0 127 0" result="hardAlpha"/>
<feOffset dx="-9.36674" dy="-9.36674"/>
<feGaussianBlur stdDeviation="9.36674"/>
<feComposite in2="hardAlpha" operator="arithmetic" k2="-1" k3="1"/>
<feColorMatrix type="matrix" values="0 0 0 0 0.792157 0 0 0 0 0.792157 0 0 0 0 0.792157 0 0 0 0.5 0"/>
<feBlend mode="normal" in2="shape" result="effect2_innerShadow_520_91"/>
<feColorMatrix in="SourceAlpha" type="matrix" values="0 0 0 0 0 0 0 0 0 0 0 0 0 0 0 0 0 0 127 0" result="hardAlpha"/>
<feOffset dx="9.36674" dy="9.36674"/>
<feGaussianBlur stdDeviation="9.36674"/>
<feComposite in2="hardAlpha" operator="arithmetic" k2="-1" k3="1"/>
<feColorMatrix type="matrix" values="0 0 0 0 1 0 0 0 0 1 0 0 0 0 1 0 0 0 0.3 0"/>
<feBlend mode="normal" in2="effect2_innerShadow_520_91" result="effect3_innerShadow_520_91"/>
</filter>
<radialGradient id="paint0_radial_520_91" cx="0" cy="0" r="1" gradientUnits="userSpaceOnUse" gradientTransform="translate(353.761 461.249) rotate(89.121) scale(261.635 637.99)">
<stop stop-color="#ECBC3E"/>
<stop offset="1" stop-color="#EB9031"/>
</radialGradient>
<linearGradient id="paint1_linear_520_91" x1="185.457" y1="281.244" x2="522.457" y2="630.12" gradientUnits="userSpaceOnUse">
<stop stop-color="white"/>
<stop offset="1" stop-color="#EDEDED"/>
</linearGradient>
</defs>
</svg>
