<svg width="720" height="720" viewBox="0 0 720 720" fill="none" xmlns="http://www.w3.org/2000/svg">
<rect width="720" height="720" fill="white"/>
<ellipse cx="368.518" cy="306.681" rx="238.808" ry="230.672" fill="black"/>
<path fill-rule="evenodd" clip-rule="evenodd" d="M479.935 430.008C452.031 452.532 426.846 479.897 391.176 486.723C352.745 494.077 309.916 490.663 278.057 468.638C246.896 447.095 243.338 405.696 226.132 372.623C206.738 335.346 163.949 303.942 170.954 262.774C177.977 221.506 220.883 193.946 259.692 175.401C293.188 159.395 331.951 174.192 368.808 168.229C412.061 161.231 456.518 114.385 493.184 137.626C530.094 161.023 503.282 219.49 514.673 260.691C523.996 294.413 560.503 321.477 553.478 355.716C546.41 390.169 507.837 407.486 479.935 430.008Z" fill="url(#paint0_radial_520_91)"/>
<g filter="url(#filter0_dii_520_91)">
<path d="M211.426 316.175H228.88V434.194C228.88 452.791 244.537 467.914 263.79 467.914H473.245C492.498 467.914 508.154 452.791 508.154 434.194V316.175H525.609C529.061 316.174 532.435 315.185 535.304 313.332C538.174 311.48 540.411 308.847 541.731 305.766C543.052 302.686 543.398 299.297 542.725 296.027C542.052 292.757 540.39 289.753 537.949 287.395L380.858 135.655C379.238 134.088 377.315 132.845 375.197 131.997C373.08 131.149 370.81 130.712 368.517 130.712C366.225 130.712 363.955 131.149 361.838 131.997C359.72 132.845 357.797 134.088 356.177 135.655L199.085 287.395C196.645 289.753 194.983 292.757 194.31 296.027C193.637 299.297 193.983 302.686 195.303 305.766C196.624 308.847 198.861 311.48 201.73 313.332C204.6 315.185 207.974 316.174 211.426 316.175ZM368.517 171.415L473.245 272.575V349.895L473.263 434.194H263.79V272.575L368.517 171.415Z" fill="url(#paint1_linear_520_91)"/>
</g>
<ellipse cx="380.127" cy="362.357" rx="14.916" ry="17.1096" fill="#EB9E37" fill-opacity="0.64"/>
<ellipse cx="303.681" cy="353.342" rx="14.916" ry="17.1096" fill="#EB9E37" fill-opacity="0.64"/>
<ellipse cx="364.871" cy="284.307" rx="14.916" ry="17.1096" fill="#EB9E37" fill-opacity="0.64"/>
<path d="M175.151 588.497V600.722H169.987V568.206H183.022C186.817 568.206 189.841 569.137 192.092 570.997C194.344 572.839 195.469 575.323 195.469 578.449C195.469 581.613 194.381 584.078 192.204 585.846C190.027 587.613 186.948 588.497 182.966 588.497H175.151ZM175.151 584.255H183.022C185.329 584.255 187.115 583.762 188.38 582.775C189.646 581.789 190.278 580.366 190.278 578.505C190.278 576.719 189.646 575.277 188.38 574.179C187.115 573.063 185.375 572.495 183.161 572.477H175.151V584.255ZM236.95 588.19H229.163V600.722H223.999V568.206H235.889C239.852 568.206 242.904 569.072 245.044 570.802C247.202 572.532 248.281 574.979 248.281 578.142C248.281 582.385 246.095 585.334 241.722 586.99L249.76 600.443V600.722H244.234L236.95 588.19ZM229.163 583.976H236.029C238.206 583.976 239.927 583.473 241.192 582.468C242.476 581.445 243.118 580.068 243.118 578.338C243.118 576.477 242.494 575.035 241.248 574.012C240.001 572.988 238.206 572.477 235.861 572.477H229.163V583.976ZM304.749 585.427C304.749 590.283 303.465 594.126 300.897 596.954C298.33 599.763 294.887 601.168 290.571 601.168C286.31 601.168 282.867 599.745 280.244 596.898C277.639 594.051 276.336 590.181 276.336 585.287V583.557C276.336 578.756 277.63 574.923 280.216 572.058C282.821 569.193 286.254 567.76 290.515 567.76C294.85 567.76 298.292 569.174 300.841 572.002C303.409 574.83 304.712 578.617 304.749 583.362V585.427ZM299.641 583.501C299.641 579.817 298.841 576.998 297.241 575.044C295.641 573.091 293.399 572.114 290.515 572.114C287.724 572.114 285.51 573.109 283.872 575.1C282.253 577.091 281.444 579.919 281.444 583.585V585.427C281.444 589.055 282.263 591.874 283.9 593.884C285.537 595.875 287.761 596.87 290.571 596.87C293.473 596.87 295.706 595.893 297.269 593.94C298.851 591.967 299.641 589.13 299.641 585.427V583.501ZM339.363 588.497V600.722H334.2V568.206H347.234C351.03 568.206 354.053 569.137 356.305 570.997C358.556 572.839 359.682 575.323 359.682 578.449C359.682 581.613 358.593 584.078 356.416 585.846C354.239 587.613 351.16 588.497 347.178 588.497H339.363ZM339.363 584.255H347.234C349.541 584.255 351.327 583.762 352.593 582.775C353.858 581.789 354.49 580.366 354.49 578.505C354.49 576.719 353.858 575.277 352.593 574.179C351.327 573.063 349.588 572.495 347.373 572.477H339.363V584.255ZM408.223 586.041H393.375V596.507H410.651V600.722H388.211V568.206H410.484V572.477H393.375V581.799H408.223V586.041ZM451.88 588.19H444.093V600.722H438.93V568.206H450.82C454.783 568.206 457.834 569.072 459.974 570.802C462.132 572.532 463.212 574.979 463.212 578.142C463.212 582.385 461.025 585.334 456.653 586.99L464.691 600.443V600.722H459.165L451.88 588.19ZM444.093 583.976H450.959C453.136 583.976 454.857 583.473 456.122 582.468C457.406 581.445 458.048 580.068 458.048 578.338C458.048 576.477 457.425 575.035 456.178 574.012C454.932 572.988 453.136 572.477 450.792 572.477H444.093V583.976ZM516.693 572.477H505.557V600.722H500.394V572.477H489.313V568.206H516.693V572.477ZM555.94 584.366L564.648 568.206H570.454L558.452 589.362V600.722H553.289V589.055L541.455 568.206H547.26L555.94 584.366Z" fill="black"/>
<g style="mix-blend-mode:difference">
<path d="M238.457 646.404C238.457 644.916 237.889 643.762 236.754 642.944C235.638 642.125 233.712 641.371 230.977 640.683C228.242 639.994 226.074 639.25 224.474 638.45C220.845 636.627 219.031 634.05 219.031 630.719C219.031 628.058 220.157 625.9 222.408 624.244C224.678 622.588 227.59 621.76 231.144 621.76C234.791 621.76 237.768 622.69 240.075 624.551C242.401 626.411 243.564 628.793 243.564 631.696H238.401C238.401 629.872 237.74 628.468 236.419 627.481C235.117 626.477 233.34 625.974 231.088 625.974C228.986 625.974 227.311 626.393 226.065 627.23C224.818 628.049 224.195 629.202 224.195 630.691C224.195 631.9 224.762 632.915 225.897 633.733C227.051 634.552 229.079 635.333 231.982 636.078C234.884 636.822 237.154 637.669 238.792 638.618C240.429 639.548 241.648 640.646 242.448 641.911C243.248 643.176 243.648 644.655 243.648 646.349C243.648 649.084 242.513 651.242 240.243 652.824C237.992 654.387 235.014 655.168 231.312 655.168C227.46 655.168 224.26 654.229 221.711 652.349C219.18 650.451 217.915 647.995 217.915 644.981H223.106C223.106 646.879 223.822 648.358 225.255 649.419C226.688 650.479 228.707 651.01 231.312 651.01C233.656 651.01 235.433 650.591 236.643 649.754C237.852 648.898 238.457 647.781 238.457 646.404ZM277.397 642.497V654.722H272.234V622.206H285.268C289.063 622.206 292.087 623.137 294.338 624.997C296.59 626.839 297.716 629.323 297.716 632.449C297.716 635.613 296.627 638.078 294.45 639.846C292.273 641.613 289.194 642.497 285.212 642.497H277.397ZM277.397 638.255H285.268C287.575 638.255 289.361 637.762 290.626 636.775C291.892 635.789 292.524 634.366 292.524 632.505C292.524 630.719 291.892 629.277 290.626 628.179C289.361 627.063 287.621 626.495 285.407 626.477H277.397V638.255ZM353.486 639.427C353.486 644.283 352.202 648.126 349.634 650.954C347.066 653.763 343.624 655.168 339.307 655.168C335.046 655.168 331.604 653.745 328.981 650.898C326.376 648.051 325.073 644.181 325.073 639.287V637.557C325.073 632.756 326.366 628.923 328.953 626.058C331.558 623.193 334.991 621.76 339.251 621.76C343.587 621.76 347.029 623.174 349.578 626.002C352.146 628.83 353.448 632.617 353.486 637.362V639.427ZM348.378 637.501C348.378 633.817 347.578 630.998 345.978 629.044C344.378 627.091 342.136 626.114 339.251 626.114C336.46 626.114 334.246 627.109 332.609 629.1C330.99 631.091 330.181 633.919 330.181 637.585V639.427C330.181 643.055 330.999 645.874 332.637 647.884C334.274 649.875 336.498 650.87 339.307 650.87C342.21 650.87 344.443 649.893 346.006 647.94C347.587 645.967 348.378 643.13 348.378 639.427V637.501ZM410.121 654.722H404.985L388.1 630.272V654.722H382.936V622.206H388.1L404.985 646.684V622.206H410.121V654.722ZM466.952 650.535C465.724 652.08 464.021 653.242 461.844 654.024C459.686 654.787 457.202 655.168 454.392 655.168C449.964 655.168 446.41 653.782 443.73 651.01C441.051 648.237 439.693 644.507 439.655 639.818V637.306C439.655 632.431 440.893 628.626 443.368 625.89C445.861 623.137 449.359 621.76 453.862 621.76C457.583 621.76 460.57 622.634 462.821 624.383C465.072 626.132 466.449 628.691 466.952 632.059H461.816C461.109 628.021 458.476 626.002 453.918 626.002C450.959 626.002 448.708 626.96 447.163 628.877C445.619 630.793 444.847 633.603 444.847 637.306V639.65C444.847 643.185 445.703 645.958 447.415 647.967C449.145 649.958 451.499 650.954 454.476 650.954C457.862 650.954 460.309 650.265 461.816 648.888V642.246H453.973V638.227H466.952V650.535ZM517 640.041H502.152V650.507H519.428V654.722H496.989V622.206H519.261V626.477H502.152V635.799H517V640.041Z" fill="#3D3D3D"/>
</g>
<line x1="528.79" y1="637.232" x2="544.79" y2="637.232" stroke="black" stroke-width="4"/>
<line x1="192.79" y1="637.232" x2="208.79" y2="637.232" stroke="black" stroke-width="4"/>
<defs>
<filter id="filter0_dii_520_91" x="156.508" y="121.345" width="424.019" height="421.503" filterUnits="userSpaceOnUse" color-interpolation-filters="sRGB">
<feFlood flood-opacity="0" result="BackgroundImageFix"/>
<feColorMatrix in="SourceAlpha" type="matrix" values="0 0 0 0 0 0 0 0 0 0 0 0 0 0 0 0 0 0 127 0" result="hardAlpha"/>
<feOffset dy="37.4669"/>
<feGaussianBlur stdDeviation="18.7335"/>
<feColorMatrix type="matrix" values="0 0 0 0 0.758333 0 0 0 0 0.0537153 0 0 0 0 0.0537153 0 0 0 0.24 0"/>
<feBlend mode="normal" in2="BackgroundImageFix" result="effect1_dropShadow_520_91"/>
<feBlend mode="normal" in="SourceGraphic" in2="effect1_dropShadow_520_91" result="shape"/>
<feColorMatrix in="SourceAlpha" type="matrix" values="0 0 0 0 0 0 0 0 0 0 0 0 0 0 0 0 0 0 127 0" result="hardAlpha"/>
<feOffset dx="-9.36674" dy="-9.36674"/>
<feGaussianBlur stdDeviation="9.36674"/>
<feComposite in2="hardAlpha" operator="arithmetic" k2="-1" k3="1"/>
<feColorMatrix type="matrix" values="0 0 0 0 0.792157 0 0 0 0 0.792157 0 0 0 0 0.792157 0 0 0 0.5 0"/>
<feBlend mode="normal" in2="shape" result="effect2_innerShadow_520_91"/>
<feColorMatrix in="SourceAlpha" type="matrix" values="0 0 0 0 0 0 0 0 0 0 0 0 0 0 0 0 0 0 127 0" result="hardAlpha"/>
<feOffset dx="9.36674" dy="9.36674"/>
<feGaussianBlur stdDeviation="9.36674"/>
<feComposite in2="hardAlpha" operator="arithmetic" k2="-1" k3="1"/>
<feColorMatrix type="matrix" values="0 0 0 0 1 0 0 0 0 1 0 0 0 0 1 0 0 0 0.3 0"/>
<feBlend mode="normal" in2="effect2_innerShadow_520_91" result="effect3_innerShadow_520_91"/>
</filter>
<radialGradient id="paint0_radial_520_91" cx="0" cy="0" r="1" gradientUnits="userSpaceOnUse" gradientTransform="translate(362.279 310.717) rotate(89.121) scale(261.635 637.99)">
<stop stop-color="#ECBC3E"/>
<stop offset="1" stop-color="#EB9031"/>
</radialGradient>
<linearGradient id="paint1_linear_520_91" x1="193.975" y1="130.712" x2="530.975" y2="479.588" gradientUnits="userSpaceOnUse">
<stop stop-color="white"/>
<stop offset="1" stop-color="#EDEDED"/>
</linearGradient>
</defs>
</svg>
