<svg width="720" height="720" viewBox="0 0 720 720" fill="none" xmlns="http://www.w3.org/2000/svg">
<g clip-path="url(#clip0_809_238)">
<path d="M489.45 357.048C490.531 357.459 491.074 358.67 490.663 359.751L476.301 397.479C475.89 398.56 474.679 399.103 473.598 398.691L471.865 398.032L487.718 356.388L489.45 357.048Z" fill="white"/>
<g filter="url(#filter0_dddii_809_238)">
<path d="M340.212 263.567C330.783 275.566 197.634 501.389 190.493 521.114C183.351 540.838 185.276 549.562 200.921 560.055C216.567 570.548 325.176 625.258 347.219 628.979C369.262 632.7 378.124 626.575 389.23 604.566C400.335 582.557 494.791 340.083 500.467 323.497C506.143 306.91 504.754 299.138 489.586 289.633C474.419 280.127 389.208 253.885 373.084 251.501C356.961 249.117 349.641 251.568 340.212 263.567Z" fill="#F5F5F5"/>
</g>
<g filter="url(#filter1_ii_809_238)">
<path d="M208.379 511.97C214.637 494.684 339.207 282.126 347.471 271.61C355.734 261.095 362.149 258.947 376.279 261.036C378.168 261.315 381.14 261.968 384.903 262.91C384.779 263.183 384.671 263.466 384.578 263.759C383.285 267.825 385.535 272.17 389.601 273.462L452.094 293.321C456.161 294.613 460.505 292.364 461.798 288.297C461.91 287.943 461.996 287.586 462.056 287.229C469.593 290.093 475.463 292.626 478.379 294.454C491.671 302.784 492.889 309.595 487.914 324.131C482.94 338.667 392.28 565.818 382.547 585.106C372.815 604.395 365.048 609.762 345.73 606.501C326.412 603.24 231.229 555.293 217.518 546.097C203.807 536.901 202.12 529.256 208.379 511.97Z" fill="#84C5EC"/>
</g>
<circle cx="450.29" cy="284.711" r="2.02385" transform="rotate(50.0777 450.29 284.711)" stroke="#EAE9E9" stroke-width="0.419069"/>
<rect x="392.059" y="264.092" width="52.3126" height="3.94866" rx="1.97433" transform="rotate(17.6291 392.059 264.092)" fill="#EAE9E9"/>
<g filter="url(#filter2_ii_809_238)">
<path d="M332.471 368.379L337.46 343.475L368.267 346.669L391.839 356.867L419.556 371.584L424.795 382.829L411.615 409.167L398.625 419.128L348.616 404.012L326.104 391.335L332.471 368.379Z" fill="url(#paint0_linear_809_238)"/>
</g>
<path d="M333.478 369.484C340.145 377.451 355.465 370.319 355.465 370.319C355.465 370.319 377.648 360.23 386.756 373.37C394.066 384.262 399.935 381.907 411.873 371.585" stroke="#F6822B" stroke-width="6.42722" stroke-linecap="square" stroke-linejoin="round"/>
<path d="M329.507 389.723C338.063 392.863 347.358 386.448 355.435 382.446C370.524 374.97 376.297 389.708 383.639 394.894C396.423 403.923 413.051 396.032 426.303 384.943" stroke="#F6822B" stroke-width="6.5424"/>
<g filter="url(#filter3_ii_809_238)">
<path d="M421.965 368.23C417.34 365.763 409.322 361.004 397.87 355.792C400.088 352.895 403.835 348.96 409.057 346.659C409.511 347.073 410.056 347.275 410.602 347.478C413.41 348.507 416.584 347.555 417.887 345.127C419.075 342.909 417.792 340.33 414.718 339.194C411.932 338.166 408.758 339.119 407.443 341.557C407.213 341.999 406.982 342.44 407.018 342.989C400.335 345.557 395.837 350.267 393.283 353.851C390.902 352.722 388.127 351.706 385.468 350.48C386.677 346.932 387.969 339.439 384.694 332.373C385.204 332.027 385.84 331.461 386.175 330.798C387.758 328.444 386.176 325.722 383.391 324.694C380.583 323.665 377.432 324.619 376.149 327.093C374.994 329.324 376.286 331.938 379.351 333.062C379.64 333.17 380.186 333.373 380.58 333.259C383.608 338.888 382.346 345.085 381.543 348.509C373.332 345.275 363.779 342.053 353.063 339.241C336.215 335.023 333.029 346.479 333.029 346.479C333.029 346.479 327.056 364.158 322.656 388.78C320.775 398.754 335.836 403.163 335.836 403.163C338.058 403.839 340.276 404.511 342.49 405.18C340.982 405.805 339.477 406.434 337.975 407.067C337.975 407.067 334.506 408.776 338.195 410.312C342.022 411.617 344.933 413.415 346.72 412.449C347.624 411.967 351.093 410.258 354.04 408.906C358.386 410.23 362.736 411.55 367.091 412.867C367.809 415.754 368.682 418.935 369.15 419.873C369.529 421.58 373.144 422.042 376.948 423.345C380.764 424.661 380.018 421.26 380.018 421.26C379.384 419.645 378.743 418.029 378.094 416.413C381.595 417.528 385.088 418.643 388.574 419.758C397.576 422.868 401.548 420.346 405.327 416.447C418.592 403.122 424.099 396.717 430.47 386.449C436.98 376.529 431.215 373.142 421.965 368.23ZM420.71 385.582C415.466 393.902 410.962 399.113 399.982 410.148C396.862 413.482 393.629 415.239 386.14 412.912C371.526 408.377 356.924 403.846 342.332 399.32C342.332 399.32 330.087 395.611 331.344 387.547C334.796 367.445 339.866 352.957 339.866 352.957C339.866 352.957 342.416 343.421 355.99 346.98C386.525 355.368 405.675 366.526 413.101 370.523C420.679 374.836 425.713 377.691 420.71 385.582Z" fill="url(#paint1_linear_809_238)"/>
</g>
<g filter="url(#filter4_di_809_238)">
<path d="M466.738 299.196C466.124 299.197 465.687 298.675 465.763 298.03C466.07 294.994 466.376 291.971 466.681 288.959C466.757 288.315 467.306 287.787 467.92 287.786C485.858 287.88 503.584 287.979 521.099 288.085C521.673 288.118 522.09 288.657 522.034 289.285C521.727 292.321 521.433 295.346 521.153 298.359C521.077 299.004 520.548 299.515 519.991 299.502C502.465 299.383 484.714 299.281 466.738 299.196ZM399.389 247.984C399.307 247.028 400.398 246.046 401.335 246.185C401.593 246.208 401.868 246.251 402.147 246.257C402.59 246.297 403.022 246.038 403.28 245.651C405.267 242.554 407.24 239.467 409.2 236.392C409.371 236.147 409.327 235.808 409.078 235.674C409.066 235.667 409.054 235.66 409.041 235.654C408.917 235.595 408.769 235.636 408.632 235.634C406.327 235.6 403.55 234.769 400.322 233.092C395.107 230.371 389.884 227.668 384.653 224.983C380.542 222.887 376.395 222.667 372.231 224.306C368.05 225.925 364.325 229.11 361.13 233.868C359.029 236.992 357.657 240.089 357.052 243.123C356.411 246.154 356.563 248.828 357.514 251.108C358.31 253.039 359.574 254.509 361.227 255.586C361.755 255.931 362.523 255.664 362.928 255.086C364.718 252.381 366.517 249.657 368.323 246.916C368.691 246.334 368.546 245.67 368.079 245.275C367.262 244.626 366.797 243.785 366.684 242.752C366.544 241.4 367.038 239.825 368.198 238.068C369.51 236.082 370.97 234.928 372.62 234.573C374.257 234.16 375.932 234.365 377.641 235.224C378.008 235.418 378.37 235.605 378.726 235.785C379.314 236.079 379.419 236.777 379.035 237.338C378.232 238.557 377.422 239.781 376.606 241.01C372.859 246.742 371.044 251.678 371.166 255.744C371.325 259.814 373.402 262.826 377.338 264.795C380.505 266.416 383.955 266.536 387.616 265.113C391.257 263.707 394.258 261.127 396.66 257.341C398.69 254.173 399.6 251.054 399.389 247.984ZM392.478 246.626C392.263 248.207 391.679 249.754 390.685 251.303C389.675 252.832 388.523 253.864 387.121 254.354C385.773 254.866 384.458 254.805 383.249 254.177C383.047 254.072 382.853 253.962 382.664 253.846C379.5 251.779 379.576 248.195 382.955 243.044C383.546 242.117 384.149 241.191 384.765 240.266C385.132 239.685 385.917 239.438 386.468 239.729C388.129 240.571 389.796 241.42 391.469 242.276C391.627 242.383 391.765 242.507 391.862 242.664C392.432 243.794 392.632 245.095 392.478 246.626ZM299.828 431.883C303.57 428.513 305.952 423.479 306.935 416.813C306.979 416.594 307.016 416.393 307.045 416.209C308.115 409.403 307.372 403.942 304.781 399.823C302.209 395.688 298.104 393.314 292.415 392.641C288.972 392.241 285.863 392.691 283.104 394.008C281.977 394.54 280.483 393.775 280.726 392.718C281.801 387.034 282.896 381.345 284.01 375.653C284.16 375.015 283.672 374.432 282.954 374.35C279.627 373.967 276.294 373.578 272.956 373.182C272.234 373.136 271.544 373.577 271.411 374.235C267.734 393.28 264.363 412.297 261.298 431.285C261.206 431.91 261.71 432.513 262.428 432.595C265.451 432.913 268.467 433.237 271.476 433.567C272.157 433.646 272.804 433.276 272.931 432.692C272.997 432.499 273.058 432.3 273.114 432.094C273.37 431.094 275.007 430.886 275.794 431.662C278.261 434.04 281.519 435.483 285.516 435.931C291.356 436.58 296.107 435.236 299.828 431.883ZM293.823 405.062C295.031 407.16 295.215 410.321 294.58 414.543C294.01 418.027 293.337 420.572 292.451 422.167C290.602 425.593 287.699 427.065 283.595 426.57C279.635 426.125 277.068 424.446 275.898 421.496C275.837 421.341 275.837 421.137 275.867 421.009C276.713 415.677 277.583 410.347 278.479 405.019C278.504 404.892 278.542 404.754 278.623 404.644C278.671 404.579 278.731 404.523 278.781 404.46C280.797 401.919 283.749 400.894 287.604 401.347C290.588 401.687 292.654 402.931 293.823 405.062ZM296.674 307.481C298.709 304.117 299.844 300.361 300.118 296.18C300.122 296.118 300.132 296.056 300.143 295.994C300.169 295.854 300.178 295.712 300.17 295.569C300.677 288.824 299.046 283.526 295.284 279.806C291.505 276.066 286.15 274.362 279.238 274.677C272.287 275.027 266.581 277.273 262.103 281.395C257.639 285.575 255.136 290.915 254.666 297.459C254.643 298.412 254.619 299.377 254.595 300.355C254.674 306.37 256.716 311.017 260.665 314.307C264.591 317.651 269.818 319.121 276.32 318.806C280.839 318.612 284.884 317.483 288.389 315.507C291.932 313.533 294.661 310.874 296.674 307.481ZM287.494 295.856C287.778 291.826 287.155 288.794 285.611 286.704C284.063 284.65 281.709 283.715 278.478 283.856C275.375 284.026 272.854 285.179 270.966 287.374C269.021 289.582 267.917 293 267.598 297.641C267.32 301.597 268.018 304.636 269.616 306.75C271.237 308.81 273.625 309.785 276.802 309.621C279.922 309.471 282.429 308.261 284.284 306.026C286.101 303.788 287.202 300.407 287.494 295.856ZM471.76 399.449C471.884 404.334 473.914 409.333 477.83 414.462C481.991 419.967 486.326 423.31 490.795 424.526C495.283 425.725 499.234 424.811 502.724 421.754C505.162 419.645 506.613 416.928 507.066 413.713C507.229 412.723 508.392 412.193 509.071 412.924C509.201 413.079 509.347 413.231 509.507 413.379C509.546 413.415 509.582 413.454 509.619 413.491C509.979 413.859 510.566 413.892 510.951 413.537C512.809 411.892 514.673 410.253 516.542 408.621C516.984 408.251 517.049 407.512 516.683 407.033C505.898 391.911 495.211 376.798 484.623 361.693C484.296 361.18 483.598 361.081 483.133 361.505C480.873 363.35 478.606 365.201 476.332 367.058C475.833 367.442 475.731 368.177 476.077 368.673C479.296 373.2 482.528 377.729 485.771 382.259C486.363 383.13 485.635 384.423 484.645 384.466C482.051 384.551 479.604 385.506 477.373 387.372C473.558 390.531 471.673 394.568 471.76 399.449ZM493.287 414.069C491.071 413.258 488.792 411.27 486.481 408.181C481.326 401.286 480.742 396.136 484.759 392.81C487.214 390.721 489.74 390.351 492.376 391.664C492.501 391.731 492.642 391.818 492.723 391.955C495.782 396.184 498.855 400.401 501.941 404.607C502.056 404.784 502.117 404.938 502.137 405.126C502.703 408.172 501.823 410.754 499.425 412.829C497.549 414.467 495.506 414.843 493.287 414.069ZM536.911 480.417C547.13 473.028 557.298 465.648 567.417 458.275C567.856 457.942 567.955 457.244 567.632 456.694C566.083 454.163 564.536 451.619 562.989 449.063C562.683 448.534 562.048 448.347 561.61 448.68C551.353 456.078 541.045 463.483 530.688 470.897C528.088 472.731 525.862 472.235 524.018 469.337C523.658 468.784 523.304 468.157 522.94 467.436C522.627 466.776 521.888 466.506 521.352 466.886C519.726 468.019 518.1 469.152 516.474 470.285C516.095 470.567 515.952 471.131 516.171 471.597C516.768 473.045 517.519 474.433 518.4 475.814C520.972 479.744 523.889 482.087 527.132 482.859C530.337 483.628 533.59 482.819 536.911 480.417ZM573.415 441.023C572.092 440.627 570.841 440.887 569.649 441.749C568.436 442.627 567.733 443.83 567.542 445.357C567.367 446.904 567.783 448.503 568.739 450.095C569.712 451.707 570.868 452.722 572.208 453.138C573.564 453.575 574.866 453.375 576.042 452.493C577.218 451.612 577.9 450.426 578.054 448.896C578.263 447.389 577.864 445.809 576.874 444.177C575.908 442.491 574.755 441.44 573.415 441.023ZM346.703 526.332C353.316 524.557 359.228 524.599 364.402 526.454C369.65 528.316 373.291 531.728 375.438 536.662C376.868 540.045 377.172 543.105 376.262 545.814C375.975 546.737 376.95 547.903 378.007 547.737C378.083 547.719 378.152 547.706 378.215 547.699C378.856 547.607 379.494 547.962 379.723 548.522C380.862 551.054 382.001 553.586 383.141 556.118C383.404 556.718 383.086 557.359 382.476 557.528C369.263 561.067 355.917 564.637 342.438 568.238C338.628 569.239 334.938 569.32 331.386 568.465C327.794 567.643 324.593 565.982 321.8 563.501C318.97 561.017 316.702 557.858 314.923 554.016C313.602 551.09 312.962 548.038 313.033 544.937C313.091 542.189 313.65 539.876 314.764 538.022C315.004 537.615 315.615 537.446 316.175 537.626C318.434 538.311 320.685 539.001 322.93 539.696C323.729 539.916 324.12 540.751 323.84 541.396C322.37 544.539 322.396 547.797 323.886 551.129C325.16 553.959 326.996 555.908 329.387 557.051C331.741 558.19 334.443 558.356 337.508 557.568C338.309 557.342 338.294 556.261 337.514 555.82C334.558 554.125 332.339 551.676 330.896 548.441C328.773 543.658 329.093 539.221 331.89 535.172C334.704 531.144 339.503 528.222 346.227 526.457C346.381 526.396 346.54 526.354 346.703 526.332ZM350.479 537.216C346.572 538.264 343.794 539.802 342.218 541.839C340.641 543.875 340.401 546.161 341.533 548.699C342.949 551.819 345.194 553.768 348.289 554.527C348.544 554.587 348.749 554.586 348.94 554.529C354.711 552.983 360.462 551.454 366.193 549.942C366.263 549.923 366.331 549.898 366.396 549.868C366.561 549.792 366.725 549.716 366.831 549.571C368.578 547.494 368.804 544.947 367.443 541.849C366.347 539.315 364.341 537.611 361.463 536.704C358.616 535.874 354.939 536.012 350.479 537.216ZM404.277 447.679C404.442 447.917 404.486 448.256 404.426 448.511C403.955 450.751 403.495 452.992 403.047 455.234C402.888 455.983 402.077 456.32 401.381 455.979C393.643 452.067 385.88 448.152 378.092 444.235C377.716 444.072 377.287 444.089 376.918 444.261C373.571 446.059 370.211 447.857 366.839 449.653C366.018 450.101 366.084 451.242 366.974 451.693C378.048 457.006 389.067 462.32 400.029 467.635C400.492 467.862 400.782 468.372 400.723 468.831C399.757 478.295 398.856 487.74 398.018 497.166C397.916 498.105 399.041 498.838 399.882 498.373C403.133 496.541 406.378 494.715 409.615 492.895C409.947 492.72 410.121 492.437 410.154 492.068C410.709 484.565 411.303 477.052 411.934 469.53C412.049 467.817 412.163 466.115 412.276 464.426C412.334 463.352 413.813 463.037 414.416 464.003C418.253 470.086 422.122 476.166 426.022 482.242C426.382 482.795 427.107 483.009 427.62 482.682C430.231 481.203 432.838 479.717 435.439 478.224C436.005 477.921 436.124 477.206 435.781 476.673C425.983 460.907 416.348 445.131 406.874 429.344C406.551 428.794 405.826 428.581 405.26 428.884C402.509 430.388 399.746 431.891 396.971 433.393C396.421 433.717 396.228 434.425 396.588 434.978C399.138 439.223 401.701 443.457 404.277 447.679ZM480.494 608.878C480.691 610.012 482.138 610.476 482.61 609.569C485.608 603.461 488.607 597.352 491.605 591.244C491.826 590.855 492.289 590.672 492.759 590.826C495.749 591.786 498.733 592.752 501.71 593.724C502.469 593.977 502.853 594.886 502.519 595.507C495.346 608.524 488.199 621.544 481.076 634.565C480.688 635.163 480.306 635.756 479.932 636.343C476.844 640.738 472.505 642.045 466.891 640.318C465.588 639.905 464.225 639.337 462.915 638.588C462.435 638.34 462.148 637.794 462.228 637.318C462.481 635.306 462.747 633.296 463.024 631.286C463.08 630.659 463.684 630.359 464.318 630.546C464.475 630.597 464.644 630.649 464.825 630.702C466.907 631.353 468.454 631.527 469.557 631.253C470.681 630.963 471.605 630.189 472.364 628.973C472.861 628.124 473.364 627.282 473.873 626.447C474.02 626.255 474.026 625.977 473.975 625.712C471.211 611.737 468.535 597.757 465.946 583.773C465.827 583.018 466.493 582.426 467.215 582.676C470.291 583.657 473.349 584.617 476.391 585.557C476.898 585.714 477.285 586.176 477.353 586.666C478.368 594.086 479.415 601.49 480.494 608.878ZM182.456 393.004C181.632 392.224 182.146 390.838 183.367 390.704C183.669 390.657 183.97 390.621 184.27 390.598C184.984 390.513 185.554 389.968 185.532 389.371C185.457 386.586 185.407 383.804 185.381 381.024C185.363 380.389 184.718 379.904 183.97 379.949C168.021 380.925 151.997 381.907 135.898 382.894C135.129 382.956 134.523 383.497 134.501 384.165C134.523 387.131 134.555 390.111 134.599 393.103C134.617 393.738 135.226 394.219 136.048 394.181C147.521 393.465 158.969 392.758 170.392 392.062C170.616 392.045 170.855 392.085 171.053 392.158C174.085 393.414 175.64 395.598 175.737 398.695C175.812 400.99 175.218 402.649 173.951 403.708C172.668 404.747 170.569 405.342 167.63 405.546C157.255 406.186 146.855 406.824 136.43 407.46C135.645 407.502 135.055 408.064 135.09 408.718C135.224 411.682 135.369 414.646 135.527 417.612C135.582 418.249 136.228 418.735 137.033 418.676C148.207 417.983 159.351 417.28 170.464 416.569C170.652 416.549 170.8 416.562 170.981 416.615C174.771 417.715 176.755 419.882 177.02 423.18C177.166 425.518 176.626 427.2 175.343 428.239C174.12 429.228 172.037 429.843 169.176 430.017C158.814 430.646 148.413 431.284 137.975 431.931C137.207 431.993 136.654 432.558 136.709 433.195C136.955 436.156 137.219 439.113 137.502 442.065C137.574 442.722 138.259 443.174 139.061 443.152C149.45 442.501 159.826 441.86 170.188 441.231C176.606 440.816 181.324 439.431 184.272 437.033C187.28 434.584 188.592 431.129 188.254 426.559C187.912 421.822 185.744 418.169 181.699 415.54C180.889 415.022 180.917 413.871 181.748 413.312C185.401 410.939 187.088 407.443 186.868 402.81C186.759 398.801 185.279 395.562 182.456 393.004Z" stroke="url(#paint2_linear_809_238)" stroke-width="4.42201"/>
</g>
<path d="M280.637 58.1109L291.773 76.4469L303.005 58.1109H306.653L293.453 79.5189V92.1909H290.093V79.4229L276.941 58.1109H280.637ZM322.313 58.1109H325.145L339.305 92.1909H335.753L331.337 81.5349H316.025L311.657 92.1909H308.057L322.313 58.1109ZM330.569 78.8949L323.705 62.0469L316.745 78.8949H330.569ZM373.663 83.4069C373.663 85.1029 373.231 86.6229 372.367 87.9669C371.503 89.2789 370.335 90.3189 368.863 91.0869C367.423 91.8229 365.839 92.1909 364.111 92.1909H348.031V58.1109H364.447C366.047 58.1109 367.423 58.5429 368.575 59.4069C369.727 60.2389 370.623 61.3269 371.263 62.6709C371.903 63.9829 372.223 65.3589 372.223 66.7989C372.223 68.4949 371.791 70.0629 370.927 71.5029C370.063 72.9429 368.863 74.0149 367.327 74.7189C369.247 75.2949 370.783 76.3669 371.935 77.9349C373.087 79.5029 373.663 81.3269 373.663 83.4069ZM351.391 61.0389V73.6149H363.103C364.223 73.6149 365.215 73.3269 366.079 72.7509C366.975 72.1429 367.663 71.3749 368.143 70.4469C368.655 69.4869 368.911 68.4469 368.911 67.3269C368.911 66.1749 368.671 65.1189 368.191 64.1589C367.711 63.1989 367.055 62.4469 366.223 61.9029C365.391 61.3269 364.447 61.0389 363.391 61.0389H351.391ZM370.303 82.8309C370.303 81.7109 370.047 80.6549 369.535 79.6629C369.023 78.6709 368.319 77.8709 367.423 77.2629C366.559 76.6549 365.567 76.3509 364.447 76.3509H351.391V89.2629H364.111C365.263 89.2629 366.303 88.9589 367.231 88.3509C368.159 87.7429 368.895 86.9589 369.439 85.9989C370.015 85.0069 370.303 83.9509 370.303 82.8309ZM383.84 92.1909V58.1109H387.2V89.2149H406.88V92.1909H383.84ZM426.224 58.1109H429.056L443.216 92.1909H439.664L435.248 81.5349H419.936L415.568 92.1909H411.968L426.224 58.1109ZM434.48 78.8949L427.616 62.0469L420.656 78.8949H434.48Z" fill="#F6822B"/>
<path d="M135.076 157.285C132.836 157.285 130.942 156.885 129.396 156.085C127.876 155.285 126.649 154.205 125.716 152.845C124.782 151.485 124.116 149.965 123.716 148.285C123.316 146.578 123.116 144.818 123.116 143.005V128.685H125.876V143.005C125.876 144.498 126.022 145.952 126.316 147.365C126.636 148.752 127.142 150.005 127.836 151.125C128.529 152.245 129.462 153.138 130.636 153.805C131.809 154.445 133.276 154.765 135.036 154.765C136.849 154.765 138.342 154.432 139.516 153.765C140.716 153.098 141.662 152.205 142.356 151.085C143.049 149.938 143.529 148.672 143.796 147.285C144.089 145.872 144.236 144.445 144.236 143.005V128.685H147.036V143.005C147.036 144.898 146.822 146.712 146.396 148.445C145.969 150.152 145.276 151.672 144.316 153.005C143.382 154.338 142.156 155.392 140.636 156.165C139.116 156.912 137.262 157.285 135.076 157.285ZM156.751 128.685L166.031 141.045L175.271 128.685H178.431L167.551 143.085L178.111 157.085H174.951L166.031 145.125L157.071 157.085H153.871L164.431 143.085L153.551 128.685H156.751ZM198.23 162.285V126.085H200.59V162.285H198.23ZM235.763 157.285C233.523 157.285 231.63 156.885 230.083 156.085C228.563 155.285 227.336 154.205 226.403 152.845C225.47 151.485 224.803 149.965 224.403 148.285C224.003 146.578 223.803 144.818 223.803 143.005V128.685H226.563V143.005C226.563 144.498 226.71 145.952 227.003 147.365C227.323 148.752 227.83 150.005 228.523 151.125C229.216 152.245 230.15 153.138 231.323 153.805C232.496 154.445 233.963 154.765 235.723 154.765C237.536 154.765 239.03 154.432 240.203 153.765C241.403 153.098 242.35 152.205 243.043 151.085C243.736 149.938 244.216 148.672 244.483 147.285C244.776 145.872 244.923 144.445 244.923 143.005V128.685H247.723V143.005C247.723 144.898 247.51 146.712 247.083 148.445C246.656 150.152 245.963 151.672 245.003 153.005C244.07 154.338 242.843 155.392 241.323 156.165C239.803 156.912 237.95 157.285 235.763 157.285ZM257.598 157.085V128.685H260.398V157.085H257.598ZM283.996 162.285V126.085H286.356V162.285H283.996ZM309.969 157.085V128.685H328.609V131.165H312.769V141.605H326.129V143.925H312.769V157.085H309.969ZM345.04 138.645C343.227 138.698 341.627 139.205 340.24 140.165C338.88 141.125 337.92 142.445 337.36 144.125V157.085H334.64V136.245H337.2V141.245C337.92 139.778 338.867 138.592 340.04 137.685C341.24 136.778 342.507 136.272 343.84 136.165C344.107 136.138 344.333 136.125 344.52 136.125C344.707 136.125 344.88 136.138 345.04 136.165V138.645ZM360.118 157.485C358.118 157.485 356.332 156.992 354.758 156.005C353.212 155.018 351.998 153.712 351.118 152.085C350.238 150.432 349.798 148.645 349.798 146.725C349.798 144.778 350.238 142.992 351.118 141.365C352.025 139.712 353.252 138.392 354.798 137.405C356.372 136.392 358.145 135.885 360.118 135.885C362.118 135.885 363.892 136.392 365.438 137.405C367.012 138.392 368.238 139.712 369.118 141.365C370.025 142.992 370.478 144.778 370.478 146.725C370.478 148.645 370.038 150.432 369.158 152.085C368.278 153.712 367.052 155.018 365.478 156.005C363.932 156.992 362.145 157.485 360.118 157.485ZM352.558 146.765C352.558 148.312 352.892 149.725 353.558 151.005C354.252 152.258 355.172 153.258 356.318 154.005C357.465 154.725 358.732 155.085 360.118 155.085C361.505 155.085 362.772 154.712 363.918 153.965C365.065 153.218 365.985 152.205 366.678 150.925C367.372 149.645 367.718 148.232 367.718 146.685C367.718 145.138 367.372 143.725 366.678 142.445C365.985 141.165 365.065 140.152 363.918 139.405C362.772 138.658 361.505 138.285 360.118 138.285C358.758 138.285 357.505 138.672 356.358 139.445C355.212 140.192 354.292 141.205 353.598 142.485C352.905 143.765 352.558 145.192 352.558 146.765ZM395.748 157.085H393.028V145.445C393.028 142.992 392.654 141.205 391.908 140.085C391.188 138.938 390.068 138.365 388.548 138.365C387.481 138.365 386.428 138.632 385.388 139.165C384.348 139.672 383.428 140.378 382.628 141.285C381.854 142.165 381.294 143.178 380.948 144.325V157.085H378.228V136.245H380.708V140.965C381.534 139.445 382.748 138.218 384.348 137.285C385.948 136.352 387.681 135.885 389.548 135.885C391.094 135.885 392.321 136.258 393.228 137.005C394.134 137.725 394.774 138.765 395.148 140.125C395.548 141.458 395.748 143.045 395.748 144.885V157.085ZM414.553 156.085C414.233 156.218 413.646 156.458 412.793 156.805C411.939 157.152 410.953 157.325 409.833 157.325C408.659 157.325 407.633 156.992 406.753 156.325C405.873 155.658 405.433 154.658 405.433 153.325V138.405H402.553V136.245H405.433V129.205H408.153V136.245H412.953V138.405H408.153V152.565C408.206 153.338 408.473 153.912 408.953 154.285C409.459 154.632 410.033 154.805 410.673 154.805C411.419 154.805 412.086 154.685 412.673 154.445C413.286 154.178 413.673 153.992 413.833 153.885L414.553 156.085ZM454.186 154.605V157.085H435.106V128.685H453.826V131.165H437.906V141.405H451.786V143.765H437.906V154.605H454.186ZM479.446 157.085H476.726V145.445C476.726 142.992 476.353 141.205 475.606 140.085C474.886 138.938 473.766 138.365 472.246 138.365C471.179 138.365 470.126 138.632 469.086 139.165C468.046 139.672 467.126 140.378 466.326 141.285C465.553 142.165 464.993 143.178 464.646 144.325V157.085H461.926V136.245H464.406V140.965C465.233 139.445 466.446 138.218 468.046 137.285C469.646 136.352 471.379 135.885 473.246 135.885C474.793 135.885 476.019 136.258 476.926 137.005C477.833 137.725 478.473 138.765 478.846 140.125C479.246 141.458 479.446 143.045 479.446 144.885V157.085ZM487.046 146.725C487.046 144.752 487.446 142.952 488.246 141.325C489.073 139.672 490.206 138.352 491.646 137.365C493.086 136.378 494.726 135.885 496.566 135.885C498.3 135.885 499.846 136.352 501.206 137.285C502.593 138.192 503.673 139.298 504.446 140.605V127.885H507.166V153.805C507.166 154.525 507.486 154.898 508.126 154.925V157.085C507.593 157.165 507.18 157.192 506.886 157.165C506.3 157.138 505.793 156.925 505.366 156.525C504.966 156.098 504.766 155.618 504.766 155.085V153.045C503.94 154.405 502.82 155.485 501.406 156.285C499.993 157.085 498.526 157.485 497.006 157.485C495.566 157.485 494.233 157.192 493.006 156.605C491.78 156.018 490.713 155.218 489.806 154.205C488.926 153.192 488.246 152.045 487.766 150.765C487.286 149.458 487.046 148.112 487.046 146.725ZM504.446 149.925V143.485C504.1 142.525 503.54 141.658 502.766 140.885C501.993 140.085 501.113 139.458 500.126 139.005C499.166 138.525 498.206 138.285 497.246 138.285C495.753 138.285 494.446 138.698 493.326 139.525C492.233 140.325 491.38 141.378 490.766 142.685C490.153 143.965 489.846 145.312 489.846 146.725C489.846 148.218 490.18 149.605 490.846 150.885C491.54 152.165 492.473 153.192 493.646 153.965C494.82 154.712 496.14 155.085 497.606 155.085C498.513 155.085 499.46 154.858 500.446 154.405C501.46 153.925 502.34 153.298 503.086 152.525C503.86 151.752 504.313 150.885 504.446 149.925ZM530.484 157.085V128.685H540.124C543.138 128.685 545.644 129.325 547.644 130.605C549.671 131.858 551.191 133.565 552.204 135.725C553.218 137.858 553.724 140.232 553.724 142.845C553.724 145.725 553.164 148.232 552.044 150.365C550.924 152.498 549.351 154.152 547.324 155.325C545.298 156.498 542.898 157.085 540.124 157.085H530.484ZM550.924 142.845C550.924 140.578 550.498 138.565 549.644 136.805C548.818 135.045 547.591 133.672 545.964 132.685C544.364 131.672 542.418 131.165 540.124 131.165H533.284V154.605H540.124C542.471 154.605 544.444 154.085 546.044 153.045C547.644 152.005 548.858 150.605 549.684 148.845C550.511 147.085 550.924 145.085 550.924 142.845ZM581.358 154.605V157.085H562.278V128.685H580.998V131.165H565.078V141.405H578.958V143.765H565.078V154.605H581.358ZM589.733 128.685L599.893 153.605L610.013 128.685H612.933L601.173 157.085H598.613L586.813 128.685H589.733Z" fill="black"/>
</g>
<defs>
<filter id="filter0_dddii_809_238" x="155.091" y="219.249" width="386.168" height="448.462" filterUnits="userSpaceOnUse" color-interpolation-filters="sRGB">
<feFlood flood-opacity="0" result="BackgroundImageFix"/>
<feColorMatrix in="SourceAlpha" type="matrix" values="0 0 0 0 0 0 0 0 0 0 0 0 0 0 0 0 0 0 127 0" result="hardAlpha"/>
<feOffset dx="10.4767" dy="10.4767"/>
<feGaussianBlur stdDeviation="13.6198"/>
<feColorMatrix type="matrix" values="0 0 0 0 0.796078 0 0 0 0 0.796078 0 0 0 0 0.796078 0 0 0 0.9 0"/>
<feBlend mode="normal" in2="BackgroundImageFix" result="effect1_dropShadow_809_238"/>
<feColorMatrix in="SourceAlpha" type="matrix" values="0 0 0 0 0 0 0 0 0 0 0 0 0 0 0 0 0 0 127 0" result="hardAlpha"/>
<feOffset dx="10.4767" dy="-10.4767"/>
<feGaussianBlur stdDeviation="10.4767"/>
<feColorMatrix type="matrix" values="0 0 0 0 0.796078 0 0 0 0 0.796078 0 0 0 0 0.796078 0 0 0 0.2 0"/>
<feBlend mode="normal" in2="effect1_dropShadow_809_238" result="effect2_dropShadow_809_238"/>
<feColorMatrix in="SourceAlpha" type="matrix" values="0 0 0 0 0 0 0 0 0 0 0 0 0 0 0 0 0 0 127 0" result="hardAlpha"/>
<feOffset dx="-10.4767" dy="10.4767"/>
<feGaussianBlur stdDeviation="10.4767"/>
<feColorMatrix type="matrix" values="0 0 0 0 0.796078 0 0 0 0 0.796078 0 0 0 0 0.796078 0 0 0 0.2 0"/>
<feBlend mode="normal" in2="effect2_dropShadow_809_238" result="effect3_dropShadow_809_238"/>
<feBlend mode="normal" in="SourceGraphic" in2="effect3_dropShadow_809_238" result="shape"/>
<feColorMatrix in="SourceAlpha" type="matrix" values="0 0 0 0 0 0 0 0 0 0 0 0 0 0 0 0 0 0 127 0" result="hardAlpha"/>
<feOffset dx="-2.09535" dy="-2.09535"/>
<feGaussianBlur stdDeviation="2.09535"/>
<feComposite in2="hardAlpha" operator="arithmetic" k2="-1" k3="1"/>
<feColorMatrix type="matrix" values="0 0 0 0 0.796078 0 0 0 0 0.796078 0 0 0 0 0.796078 0 0 0 0.5 0"/>
<feBlend mode="normal" in2="shape" result="effect4_innerShadow_809_238"/>
<feColorMatrix in="SourceAlpha" type="matrix" values="0 0 0 0 0 0 0 0 0 0 0 0 0 0 0 0 0 0 127 0" result="hardAlpha"/>
<feOffset dx="2.09535" dy="2.09535"/>
<feGaussianBlur stdDeviation="2.09535"/>
<feComposite in2="hardAlpha" operator="arithmetic" k2="-1" k3="1"/>
<feColorMatrix type="matrix" values="0 0 0 0 1 0 0 0 0 1 0 0 0 0 1 0 0 0 0.3 0"/>
<feBlend mode="normal" in2="effect4_innerShadow_809_238" result="effect5_innerShadow_809_238"/>
</filter>
<filter id="filter1_ii_809_238" x="194.422" y="249.84" width="306.666" height="368.029" filterUnits="userSpaceOnUse" color-interpolation-filters="sRGB">
<feFlood flood-opacity="0" result="BackgroundImageFix"/>
<feBlend mode="normal" in="SourceGraphic" in2="BackgroundImageFix" result="shape"/>
<feColorMatrix in="SourceAlpha" type="matrix" values="0 0 0 0 0 0 0 0 0 0 0 0 0 0 0 0 0 0 127 0" result="hardAlpha"/>
<feOffset dx="10.4767" dy="10.4767"/>
<feGaussianBlur stdDeviation="13.6198"/>
<feComposite in2="hardAlpha" operator="arithmetic" k2="-1" k3="1"/>
<feColorMatrix type="matrix" values="0 0 0 0 0.125278 0 0 0 0 0.504495 0 0 0 0 0.733333 0 0 0 0.2 0"/>
<feBlend mode="normal" in2="shape" result="effect1_innerShadow_809_238"/>
<feColorMatrix in="SourceAlpha" type="matrix" values="0 0 0 0 0 0 0 0 0 0 0 0 0 0 0 0 0 0 127 0" result="hardAlpha"/>
<feOffset dx="-10.4767" dy="-10.4767"/>
<feGaussianBlur stdDeviation="10.4767"/>
<feComposite in2="hardAlpha" operator="arithmetic" k2="-1" k3="1"/>
<feColorMatrix type="matrix" values="0 0 0 0 0.568627 0 0 0 0 0.85098 0 0 0 0 1 0 0 0 0.9 0"/>
<feBlend mode="normal" in2="effect1_innerShadow_809_238" result="effect2_innerShadow_809_238"/>
</filter>
<filter id="filter2_ii_809_238" x="326.104" y="326.712" width="98.6914" height="125.941" filterUnits="userSpaceOnUse" color-interpolation-filters="sRGB">
<feFlood flood-opacity="0" result="BackgroundImageFix"/>
<feBlend mode="normal" in="SourceGraphic" in2="BackgroundImageFix" result="shape"/>
<feColorMatrix in="SourceAlpha" type="matrix" values="0 0 0 0 0 0 0 0 0 0 0 0 0 0 0 0 0 0 127 0" result="hardAlpha"/>
<feOffset dy="33.5255"/>
<feGaussianBlur stdDeviation="16.7628"/>
<feComposite in2="hardAlpha" operator="arithmetic" k2="-1" k3="1"/>
<feColorMatrix type="matrix" values="0 0 0 0 0.867118 0 0 0 0 0.919302 0 0 0 0 0.941667 0 0 0 1 0"/>
<feBlend mode="normal" in2="shape" result="effect1_innerShadow_809_238"/>
<feColorMatrix in="SourceAlpha" type="matrix" values="0 0 0 0 0 0 0 0 0 0 0 0 0 0 0 0 0 0 127 0" result="hardAlpha"/>
<feOffset dy="-16.7628"/>
<feGaussianBlur stdDeviation="8.38139"/>
<feComposite in2="hardAlpha" operator="arithmetic" k2="-1" k3="1"/>
<feColorMatrix type="matrix" values="0 0 0 0 0.302083 0 0 0 0 0.381523 0 0 0 0 0.833333 0 0 0 0.4 0"/>
<feBlend mode="normal" in2="effect1_innerShadow_809_238" result="effect2_innerShadow_809_238"/>
</filter>
<filter id="filter3_ii_809_238" x="320.399" y="322.19" width="114.949" height="103.553" filterUnits="userSpaceOnUse" color-interpolation-filters="sRGB">
<feFlood flood-opacity="0" result="BackgroundImageFix"/>
<feBlend mode="normal" in="SourceGraphic" in2="BackgroundImageFix" result="shape"/>
<feColorMatrix in="SourceAlpha" type="matrix" values="0 0 0 0 0 0 0 0 0 0 0 0 0 0 0 0 0 0 127 0" result="hardAlpha"/>
<feOffset dx="-2.09535" dy="-2.09535"/>
<feGaussianBlur stdDeviation="2.09535"/>
<feComposite in2="hardAlpha" operator="arithmetic" k2="-1" k3="1"/>
<feColorMatrix type="matrix" values="0 0 0 0 1 0 0 0 0 1 0 0 0 0 1 0 0 0 0.5 0"/>
<feBlend mode="normal" in2="shape" result="effect1_innerShadow_809_238"/>
<feColorMatrix in="SourceAlpha" type="matrix" values="0 0 0 0 0 0 0 0 0 0 0 0 0 0 0 0 0 0 127 0" result="hardAlpha"/>
<feOffset dx="2.09535" dy="2.09535"/>
<feGaussianBlur stdDeviation="2.09535"/>
<feComposite in2="hardAlpha" operator="arithmetic" k2="-1" k3="1"/>
<feColorMatrix type="matrix" values="0 0 0 0 0.122743 0 0 0 0 0.362384 0 0 0 0 0.841667 0 0 0 1 0"/>
<feBlend mode="normal" in2="effect1_innerShadow_809_238" result="effect2_innerShadow_809_238"/>
</filter>
<filter id="filter4_di_809_238" x="129.225" y="217.949" width="459.433" height="433.656" filterUnits="userSpaceOnUse" color-interpolation-filters="sRGB">
<feFlood flood-opacity="0" result="BackgroundImageFix"/>
<feColorMatrix in="SourceAlpha" type="matrix" values="0 0 0 0 0 0 0 0 0 0 0 0 0 0 0 0 0 0 127 0" result="hardAlpha"/>
<feOffset dx="2.63768" dy="2.63768"/>
<feGaussianBlur stdDeviation="3.95651"/>
<feColorMatrix type="matrix" values="0 0 0 0 0.808333 0 0 0 0 0.222292 0 0 0 0 0.222292 0 0 0 0.9 0"/>
<feBlend mode="normal" in2="BackgroundImageFix" result="effect1_dropShadow_809_238"/>
<feBlend mode="normal" in="SourceGraphic" in2="effect1_dropShadow_809_238" result="shape"/>
<feColorMatrix in="SourceAlpha" type="matrix" values="0 0 0 0 0 0 0 0 0 0 0 0 0 0 0 0 0 0 127 0" result="hardAlpha"/>
<feOffset dx="2.63768" dy="2.63768"/>
<feGaussianBlur stdDeviation="2.63768"/>
<feComposite in2="hardAlpha" operator="arithmetic" k2="-1" k3="1"/>
<feColorMatrix type="matrix" values="0 0 0 0 1 0 0 0 0 1 0 0 0 0 0.988235 0 0 0 0.3 0"/>
<feBlend mode="normal" in2="shape" result="effect2_innerShadow_809_238"/>
</filter>
<linearGradient id="paint0_linear_809_238" x1="384.926" y1="352.759" x2="364.121" y2="409.679" gradientUnits="userSpaceOnUse">
<stop stop-color="white"/>
<stop offset="1" stop-color="#A8B5FB"/>
</linearGradient>
<linearGradient id="paint1_linear_809_238" x1="381.896" y1="301.083" x2="376.273" y2="447.894" gradientUnits="userSpaceOnUse">
<stop stop-color="#3E39C3"/>
<stop offset="1" stop-color="#3833B1"/>
</linearGradient>
<linearGradient id="paint2_linear_809_238" x1="398.487" y1="190.072" x2="336.867" y2="595.931" gradientUnits="userSpaceOnUse">
<stop stop-color="#FFA866"/>
<stop offset="1" stop-color="#F6822B"/>
</linearGradient>
<clipPath id="clip0_809_238">
<rect width="720" height="720" fill="white"/>
</clipPath>
</defs>
</svg>
